<svg width="108" height="53" viewBox="0 0 108 53" fill="none" xmlns="http://www.w3.org/2000/svg">
<g clip-path="url(#clip0_87690_1288)">
<mask id="mask0_87690_1288" style="mask-type:luminance" maskUnits="userSpaceOnUse" x="1" y="0" width="106" height="53">
<path d="M106.701 0.369141H1.03613V52.3691H106.701V0.369141Z" fill="white"/>
</mask>
<g mask="url(#mask0_87690_1288)">
<path d="M29.4608 24.6217C29.4608 23.6965 29.6152 22.8449 29.9219 22.0669C30.2287 21.2909 30.6635 20.6224 31.2244 20.0654C31.7853 19.5083 32.4554 19.0722 33.2346 18.7587C34.0139 18.4453 34.8797 18.2886 35.8339 18.2886C36.6376 18.2886 37.4169 18.3981 38.1716 18.6171C38.9264 18.8362 39.6397 19.1855 40.3155 19.6632L39.7207 21.9045L39.572 21.8743C39.4421 21.3871 39.2784 20.9302 39.0807 20.5073C38.8813 20.0843 38.6384 19.7179 38.3504 19.4102C38.0625 19.1024 37.7255 18.8607 37.3378 18.6851C36.9501 18.5114 36.504 18.4245 35.9977 18.4245C35.194 18.4245 34.5013 18.6039 33.9197 18.9626C33.3381 19.3214 32.862 19.7935 32.4911 20.3826C32.1185 20.9698 31.8456 21.6496 31.6724 22.4219C31.4992 23.1942 31.4127 23.9873 31.4127 24.8049C31.4127 25.6225 31.5124 26.3362 31.71 27.0689C31.9076 27.8015 32.2013 28.4529 32.589 29.025C32.9767 29.5972 33.4549 30.056 34.0251 30.3997C34.5954 30.7433 35.258 30.9151 36.0127 30.9151C36.5492 30.9151 37.0329 30.8113 37.4639 30.6017C37.8949 30.3921 38.2695 30.1107 38.5876 29.7577C38.9057 29.4046 39.1692 28.9929 39.3762 28.5247C39.5852 28.0564 39.7339 27.5598 39.8224 27.0311L39.971 27.0009L40.626 29.3762C39.9108 29.9541 39.1598 30.377 38.3693 30.6451C37.5806 30.9133 36.7186 31.0492 35.785 31.0492C34.9022 31.0492 34.0778 30.8982 33.3137 30.5942C32.5495 30.2902 31.8794 29.8597 31.3035 29.3026C30.7275 28.7456 30.2758 28.0696 29.9483 27.2784C29.6208 26.4873 29.457 25.6035 29.457 24.6274L29.4608 24.6217Z" fill="black"/>
<path d="M46.7036 31.0451C45.8792 31.0451 45.1602 30.9016 44.5447 30.6126C43.9292 30.3237 43.4098 29.9404 42.9881 29.4627C42.5665 28.985 42.2484 28.4412 42.0358 27.8351C41.8231 27.2271 41.7139 26.6058 41.7082 25.9676C41.7026 25.3313 41.8023 24.7081 42.0056 24.1001C42.2089 23.4921 42.5213 22.9502 42.943 22.4725C43.3646 21.9948 43.8916 21.6115 44.5221 21.3225C45.1527 21.0336 45.8943 20.8901 46.7488 20.8901C47.3247 20.8901 47.8574 20.9657 48.3486 21.1148C48.8399 21.264 49.2841 21.4736 49.6813 21.7417C50.0784 22.0099 50.421 22.3309 50.709 22.7047C50.9969 23.0786 51.2303 23.4884 51.4091 23.9377C51.2905 23.9585 51.1061 23.9906 50.8576 24.034C50.6092 24.0793 50.3193 24.1304 49.9862 24.1908C49.653 24.2512 49.2841 24.3154 48.8776 24.3853C48.471 24.4551 48.0494 24.5306 47.6127 24.61C48.2677 24.6194 48.8305 24.7176 49.3029 24.9008C49.7735 25.0858 50.1612 25.3199 50.4643 25.6032C50.7673 25.8864 50.9856 26.2112 51.1192 26.5737C51.2529 26.9381 51.3075 27.3064 51.283 27.6783C51.2585 28.0522 51.1588 28.4204 50.9856 28.7829C50.8125 29.1474 50.5659 29.4684 50.2478 29.746C49.8017 30.1444 49.2841 30.4616 48.6988 30.6939C48.1134 30.928 47.4471 31.0451 46.7036 31.0451ZM43.6958 25.3086C43.6563 25.9166 43.6751 26.5454 43.7561 27.1987C43.8351 27.8501 43.9951 28.4487 44.2323 28.9907C44.4713 29.5345 44.7932 29.982 45.1997 30.3351C45.6063 30.6882 46.1239 30.8713 46.7488 30.8808C47.464 30.8713 48.1021 30.7543 48.663 30.5296C49.2239 30.3049 49.717 30.0047 50.1443 29.6251C50.6299 29.187 50.9386 28.6734 51.0666 28.0862C51.1945 27.4989 51.1305 26.9419 50.8727 26.4132C50.7146 26.0941 50.5151 25.8297 50.2779 25.622C50.0389 25.4125 49.7735 25.2463 49.4817 25.1217C49.1881 24.997 48.8738 24.9102 48.5369 24.8611C48.2 24.812 47.8574 24.7856 47.5092 24.7856C47.161 24.7856 46.7977 24.8063 46.4439 24.846C46.0919 24.8856 45.7493 24.9328 45.4162 24.9876C45.083 25.0424 44.7706 25.099 44.4788 25.1595C44.1852 25.2199 43.9255 25.2689 43.6977 25.3086H43.6958ZM43.6958 25.1443C44.0441 25.0839 44.4129 25.0197 44.8044 24.9499C45.196 24.88 45.6006 24.8063 46.0185 24.7252C46.6641 24.6156 47.3022 24.5042 47.9327 24.389C48.5632 24.2738 49.1354 24.1719 49.653 24.0832C49.574 23.6941 49.461 23.3184 49.318 22.9558C49.175 22.5933 48.9848 22.2685 48.7515 21.9853C48.518 21.7021 48.2357 21.4755 47.9026 21.3056C47.5694 21.1356 47.1798 21.0525 46.7337 21.0525C46.1785 21.0525 45.7136 21.1791 45.3409 21.434C44.9682 21.687 44.6652 22.0136 44.4318 22.4121C44.1984 22.8105 44.0252 23.2504 43.9104 23.7338C43.7956 24.2172 43.7241 24.6874 43.6939 25.1462L43.6958 25.1443Z" fill="black"/>
<path d="M52.4824 30.8809C52.968 30.8809 53.2843 30.7544 53.4273 30.4996C53.5703 30.2465 53.6475 29.85 53.6588 29.3119V23.007C53.6588 22.6993 53.6569 22.4236 53.6513 22.1857C53.6456 21.9458 53.6155 21.7457 53.5628 21.5814C53.5082 21.4172 53.416 21.2906 53.288 21.2C53.1581 21.1113 52.9699 21.0565 52.7215 21.0357V20.8865C52.9304 20.8677 53.16 20.8374 53.4141 20.7978C53.6663 20.7581 53.9204 20.709 54.1727 20.6486C54.4248 20.5882 54.6771 20.5221 54.9255 20.4466C55.174 20.371 55.3961 20.2898 55.5956 20.1992V24.3364C55.6558 23.8492 55.7876 23.3847 55.9908 22.9466C56.1941 22.5085 56.4764 22.1309 56.8397 21.8118C57.2011 21.4926 57.6434 21.2491 58.1646 21.0792C58.6864 20.9092 59.2981 20.845 60.0039 20.8846L59.9737 22.8258C59.7459 22.7766 59.5163 22.7389 59.2885 22.7144C59.0606 22.6898 58.8368 22.6766 58.6186 22.6766C58.1817 22.6766 57.779 22.7313 57.4119 22.8409C57.0449 22.9504 56.7268 23.1146 56.4595 23.3337C56.1923 23.5527 55.9796 23.8322 55.8271 24.1702C55.6728 24.5082 55.5956 24.9066 55.5956 25.3654V29.3987C55.605 29.9067 55.6878 30.2805 55.8422 30.5184C55.9965 30.7583 56.3052 30.8772 56.7719 30.8772V31.0264C56.2751 31.0056 55.8741 30.9886 55.5655 30.9735C55.2568 30.9584 54.9707 30.9508 54.7015 30.9508C54.4136 30.9508 54.1162 30.9584 53.8075 30.9735C53.4988 30.9886 53.0885 31.0056 52.5709 31.0264H52.4824V30.8772V30.8809Z" fill="black"/>
<path d="M59.1523 28.0878C59.1523 27.5798 59.2634 27.1512 59.4873 26.8038C59.7117 26.4544 59.9993 26.1674 60.3514 25.9371C60.7034 25.7086 61.0987 25.5254 61.535 25.3914C61.9719 25.2573 62.4031 25.1496 62.8303 25.0703H62.8451C62.3877 24.9816 62.0169 24.8155 61.7292 24.5775C61.441 24.3377 61.236 24.062 61.1118 23.7486C60.9876 23.4351 60.9483 23.1085 60.9933 22.7705C61.0383 22.4325 61.1625 22.1228 61.3658 21.8434C61.5692 21.5639 61.8551 21.3335 62.2225 21.1485C62.5893 20.9654 63.0296 20.8728 63.5457 20.8728C64.1404 20.8728 64.7031 20.9276 65.2374 21.0371C65.7723 21.1466 66.2445 21.326 66.6546 21.5752C67.0653 21.8245 67.4042 22.1474 67.6714 22.5458C67.9385 22.9442 68.106 23.4314 68.1755 24.0092C67.8616 24.1187 67.5472 24.2112 67.2385 24.2848C66.928 24.3604 66.621 24.4264 66.3163 24.4869C66.2861 23.9884 66.22 23.5315 66.1146 23.1123C66.0092 22.6931 65.8492 22.3324 65.631 22.0284C65.4129 21.7244 65.1321 21.4865 64.7897 21.3109C64.4468 21.1372 64.0236 21.0447 63.5172 21.0352C62.9226 21.0447 62.4333 21.1768 62.0511 21.4318C61.6689 21.6847 61.4074 22.002 61.2701 22.3796C61.1699 22.6383 61.1289 22.9008 61.1437 23.1632C61.1591 23.4276 61.2303 23.6731 61.3601 23.9034C61.4883 24.1319 61.6706 24.3339 61.9041 24.5076C62.1376 24.6814 62.4236 24.8098 62.7608 24.8891C63.3156 25.0288 63.9706 25.0836 64.7254 25.0534C65.2317 25.0326 65.7854 24.9684 66.3858 24.8589C66.9861 24.7494 67.5996 24.5907 68.2244 24.3811C68.8003 24.1923 69.3654 23.962 69.9224 23.6938C70.4778 23.4257 70.995 23.1104 71.4712 22.7535C71.9474 22.3947 72.3752 21.9793 72.7511 21.5054C73.1276 21.0333 73.4306 20.4971 73.6602 19.9004V24.4869C73.749 24.0186 73.8789 23.5673 74.0481 23.1349C74.2178 22.7025 74.432 22.3211 74.6957 21.9926C74.9594 21.664 75.2716 21.3978 75.6327 21.1938C75.9944 20.9899 76.4102 20.8823 76.8773 20.8728C77.5529 20.8426 78.1686 20.9219 78.7234 21.1126C79.2788 21.3015 79.7624 21.5752 80.1748 21.934C80.5871 22.2928 80.9238 22.7327 81.1875 23.2558C81.4507 23.7788 81.6318 24.3585 81.7315 24.9967C81.7913 24.4794 81.9007 23.9752 82.059 23.488C82.2168 23.0008 82.4315 22.5647 82.6987 22.1814C82.9658 21.798 83.2956 21.4903 83.6812 21.2561C84.0691 21.022 84.5151 20.8955 85.0215 20.8747C85.7854 20.8445 86.4706 20.9464 87.0767 21.1806C87.6827 21.4147 88.1965 21.7584 88.6186 22.2116C89.0401 22.6647 89.3653 23.2142 89.5932 23.8619C89.821 24.5095 89.9452 25.2271 89.9663 26.0126V29.3132C89.9754 29.8419 90.0528 30.2328 90.1975 30.4858C90.3405 30.7407 90.6566 30.8672 91.1425 30.8672V31.0164C90.7939 30.9975 90.4499 30.9824 90.107 30.9711C89.7646 30.9616 89.4354 30.956 89.117 30.956C88.7991 30.956 88.5035 30.9579 88.2307 30.9635C87.9578 30.9692 87.7226 30.9767 87.5227 30.9862C87.284 30.9956 87.071 31.007 86.883 31.0164V30.8672C87.1501 30.8672 87.3609 30.837 87.5153 30.7785C87.6696 30.718 87.7864 30.6274 87.8656 30.5028C87.9447 30.3782 87.9971 30.2158 88.0216 30.0175C88.0461 29.8192 88.0592 29.5851 88.0592 29.3151V26.1787C88.0592 25.5122 88.0142 24.8646 87.9259 24.2376C87.8371 23.6107 87.677 23.0556 87.4497 22.5722C87.2219 22.0888 86.9109 21.7093 86.5179 21.4299C86.1266 21.1504 85.6219 21.0163 85.0061 21.0258C84.4212 21.0466 83.9262 21.2259 83.5252 21.5639C83.1225 21.9019 82.7949 22.323 82.5426 22.8252C82.2886 23.3275 82.1057 23.8656 81.9912 24.4378C81.8762 25.0099 81.8198 25.5348 81.8198 26.0145V29.3151C81.8295 29.8438 81.9064 30.2347 82.051 30.4877C82.1946 30.7426 82.5107 30.8691 82.996 30.8691V31.0183C82.648 30.9994 82.3034 30.9843 81.961 30.973C81.6181 30.9635 81.2889 30.9579 80.9711 30.9579C80.6526 30.9579 80.3576 30.9598 80.0842 30.9654C79.8113 30.9711 79.5761 30.9786 79.3767 30.9881C79.1375 30.9975 78.925 31.0089 78.7365 31.0183V30.8691C79.0042 30.8691 79.215 30.8389 79.3693 30.7804C79.5237 30.7199 79.6405 30.6293 79.7191 30.5047C79.7982 30.38 79.8512 30.2177 79.8757 30.0194C79.9002 29.8211 79.9133 29.587 79.9133 29.317V26.1806C79.9133 25.5141 79.8677 24.8664 79.7794 24.2395C79.6912 23.6126 79.5311 23.0575 79.3033 22.5741C79.0754 22.0907 78.765 21.7112 78.3737 21.4318C77.9818 21.1523 77.4777 21.0182 76.8619 21.0276C76.3254 21.0484 75.8589 21.207 75.4618 21.5054C75.0648 21.8037 74.7373 22.187 74.4793 22.6553C74.2212 23.1236 74.0219 23.6466 73.8823 24.2244C73.7433 24.8022 73.6699 25.38 73.6585 25.9578V29.4095C73.6682 29.6587 73.6847 29.8759 73.7114 30.0591C73.7359 30.2441 73.7866 30.3952 73.8601 30.5141C73.9353 30.6331 74.0447 30.7237 74.1876 30.7823C74.3306 30.8427 74.5226 30.871 74.7618 30.871V31.0202C74.4639 31.0013 74.1233 30.9862 73.7416 30.9748C73.3594 30.9654 72.9487 30.9598 72.5124 30.9598C72.2151 30.9598 71.9041 30.9654 71.5806 30.9748C71.2587 30.9843 70.9369 30.9994 70.6208 31.0202V30.871C70.8691 30.871 71.0651 30.8389 71.208 30.7747C71.351 30.7105 71.4604 30.6161 71.5356 30.4915C71.6107 30.3668 71.6597 30.2082 71.6842 30.0138C71.7087 29.8192 71.7218 29.5889 71.7218 29.3189V25.331C71.7218 25.0231 71.7201 24.7512 71.7144 24.5171C71.7087 24.283 71.6802 24.0866 71.6238 23.928C71.5692 23.7694 71.4809 23.641 71.3624 23.5466C71.2416 23.4522 71.0685 23.3955 70.8389 23.3747C70.4305 23.624 70.0073 23.8449 69.5687 24.0394C69.1301 24.2339 68.6761 24.4057 68.2079 24.5548C68.2079 24.6342 68.2096 24.7135 68.2153 24.7947C68.221 24.874 68.2227 25.0231 68.2227 25.2422V28.0651C68.2227 28.4239 68.2244 28.7732 68.2301 29.1112C68.2358 29.4492 68.2677 29.7494 68.3264 30.0081C68.3868 30.2668 68.4842 30.4764 68.6237 30.635C68.7627 30.7936 68.9718 30.8748 69.2486 30.8748V31.0239C68.7331 31.0239 68.2922 30.9843 67.9271 30.905C67.562 30.8257 67.2607 30.6935 67.0254 30.5084C66.7885 30.3253 66.6136 30.076 66.5008 29.7607C66.3875 29.4473 66.3311 29.0507 66.3311 28.573C66.0525 29.3604 65.6157 29.9647 65.021 30.3876C64.4246 30.8106 63.6716 31.0334 62.7568 31.0523C62.2715 31.0523 61.8084 30.9994 61.3715 30.8955C60.9346 30.7917 60.553 30.6218 60.2255 30.3876C59.898 30.1535 59.6359 29.8476 59.444 29.468C59.2503 29.0904 59.1541 28.6316 59.1541 28.0934L59.1523 28.0878ZM61.0571 28.2218C61.0571 28.979 61.2268 29.5719 61.5652 29.9986C61.9041 30.4272 62.4521 30.6406 63.2085 30.6406C63.6357 30.6406 64.0424 30.5764 64.4263 30.4462C64.8102 30.3178 65.1395 30.1025 65.4203 29.8042C65.7005 29.5058 65.921 29.1168 66.0844 28.6391C66.2485 28.1614 66.3311 27.5742 66.3311 26.8755V25.0383C65.9529 25.0987 65.5895 25.1421 65.2414 25.1723C64.972 25.2026 64.7088 25.2195 64.4491 25.2252C64.1894 25.2308 63.941 25.2233 63.7018 25.2026C63.3537 25.2818 63.0205 25.3914 62.7004 25.5311C62.382 25.6708 62.1 25.8596 61.8574 26.0994C61.6125 26.3392 61.4188 26.63 61.2753 26.9737C61.1306 27.3174 61.0588 27.7328 61.0588 28.2218H61.0571Z" fill="black"/>
<path d="M92.21 30.881C92.6958 30.881 93.012 30.7545 93.1549 30.4996C93.2979 30.2466 93.3754 29.85 93.3868 29.3119V23.6944C93.3868 23.3866 93.3845 23.111 93.3788 22.873C93.3737 22.6332 93.3452 22.4331 93.2905 22.2688C93.2358 22.1045 93.1435 21.978 93.0159 21.8874C92.8861 21.7986 92.6975 21.7439 92.4492 21.7231V21.5739C92.6582 21.5551 92.8878 21.5248 93.1418 21.4852C93.3942 21.4455 93.6482 21.3964 93.9005 21.336C94.1529 21.2756 94.4046 21.2095 94.6536 21.134C94.9019 21.0584 95.1241 20.9772 95.3234 20.8866V29.4007C95.3325 29.9086 95.4157 30.2824 95.5701 30.5204C95.7244 30.7602 96.0331 30.8791 96.5014 30.8791V31.0283C96.204 31.0075 95.8503 30.9943 95.4436 30.983C95.0375 30.9735 94.6046 30.9679 94.1489 30.9679C93.8305 30.9679 93.5087 30.9735 93.1811 30.983C92.8536 30.9924 92.5318 31.0075 92.214 31.0283V30.8791L92.21 30.881ZM93.2079 19.0796C93.2079 18.751 93.3076 18.4716 93.5052 18.2431C93.7029 18.0146 93.9626 17.8994 94.2788 17.8994C94.6154 17.8994 94.8808 18.0165 95.0751 18.2507C95.2687 18.4848 95.365 18.7604 95.365 19.0796C95.365 19.3987 95.263 19.6574 95.0597 19.8859C94.8563 20.1143 94.5949 20.2295 94.2788 20.2295C93.9626 20.2295 93.716 20.1275 93.5126 19.9236C93.3093 19.7197 93.2079 19.4383 93.2079 19.0796Z" fill="black"/>
<path d="M97.5703 25.9812C97.5703 25.2448 97.6871 24.565 97.9206 23.9419C98.1542 23.3188 98.4874 22.7825 98.918 22.3293C99.3492 21.8762 99.8704 21.5231 100.482 21.2681C101.094 21.0132 101.769 20.8867 102.515 20.8867C103.825 20.8867 105.022 21.2549 106.104 21.9913L105.538 23.9778H105.463C105.384 23.5793 105.261 23.2036 105.098 22.8505C104.934 22.4974 104.727 22.1859 104.48 21.9177C104.232 21.6496 103.945 21.4343 103.624 21.2757C103.302 21.1171 102.941 21.0359 102.544 21.0359C101.958 21.0359 101.469 21.17 101.077 21.44C100.685 21.7081 100.368 22.0631 100.124 22.5012C99.8818 22.9392 99.7069 23.4396 99.6032 24.0023C99.4996 24.565 99.4472 25.1353 99.4472 25.7131C99.4472 26.3305 99.5018 26.9461 99.6106 27.5579C99.72 28.1696 99.9023 28.721 100.163 29.2082C100.422 29.6953 100.761 30.0919 101.182 30.3959C101.604 30.6999 102.124 30.8509 102.739 30.8509C103.543 30.7905 104.213 30.528 104.749 30.0597C105.286 29.5915 105.707 28.9891 106.016 28.2527L106.165 28.3132C105.816 29.1591 105.331 29.8237 104.706 30.3071C104.081 30.7905 103.317 31.0322 102.414 31.0322C101.71 31.0322 101.058 30.9038 100.463 30.6432C99.8687 30.3845 99.3566 30.0277 98.9294 29.5745C98.5022 29.1213 98.1707 28.5888 97.932 27.9752C97.6928 27.3634 97.5743 26.6987 97.5743 25.9812H97.5703Z" fill="black"/>
<path d="M15.1038 12.1439L20.8559 10.4596C21.556 10.2538 21.957 9.5193 21.7537 8.81684L20.0748 3.04641C19.7454 1.91348 18.2151 1.74543 17.6486 2.78017L13.5755 10.2349C13.0108 11.2696 13.9745 12.4743 15.1038 12.1439Z" fill="black"/>
<path d="M22.6846 8.54306C22.8898 9.24551 23.622 9.64769 24.3221 9.44374L30.7762 7.55363C31.9056 7.22323 32.0731 5.68807 31.0417 5.11972L22.7016 0.536983C21.6701 -0.0294862 20.4693 0.937288 20.7987 2.07022L22.6828 8.54494L22.6846 8.54306Z" fill="#C1272D"/>
<path d="M8.2093 24.7635L10.7164 24.029C11.4166 23.8232 11.8175 23.0886 11.6142 22.3862L10.8821 19.8711C10.5527 18.7382 9.02241 18.5701 8.45588 19.6049L6.68099 22.8526C6.11631 23.8874 7.08 25.0921 8.2093 24.7616V24.7635Z" fill="black"/>
<path d="M27.1082 40.9619L24.97 33.6129C24.7649 32.9105 24.0327 32.5083 23.3325 32.7122L9.94819 36.6321C8.81883 36.9626 8.65131 38.4977 9.68275 39.0661L19.1465 44.2701C19.4533 44.4381 19.8147 44.4777 20.1516 44.3796L26.2104 42.6047C26.9106 42.3988 27.3115 41.6643 27.1082 40.9619Z" fill="black"/>
<path d="M28.1208 44.4391C27.9156 43.7367 27.1834 43.3344 26.4832 43.5384L23.8896 44.2975C22.7602 44.6279 22.5927 46.163 23.6242 46.7314L26.9745 48.5743C28.0059 49.1408 29.2068 48.174 28.8774 47.0411L28.1208 44.4391Z" fill="#FF0000"/>
<path d="M34.5128 7.47203L11.9113 14.0903C11.5743 14.1885 11.292 14.4169 11.1226 14.7247L10.9099 15.1156C10.7424 15.4234 10.7029 15.7859 10.8008 16.1239L12.5437 22.1153C12.6585 22.508 12.9371 22.8064 13.2834 22.9574L35.1565 7.4494C34.9457 7.40408 34.7236 7.41163 34.5128 7.47391V7.47203Z" fill="#FF0000"/>
<path d="M38.2827 14.5782L36.5397 8.58681C36.4419 8.24881 36.2141 7.96561 35.9073 7.79567L35.5177 7.5823C35.4028 7.51996 35.2806 7.47464 35.1563 7.44824L13.2832 22.9562C13.5561 23.0771 13.8723 23.1054 14.181 23.0148L37.3848 16.219C38.085 16.0133 38.4859 15.2787 38.2827 14.5763V14.5782Z" fill="#FF0000"/>
<path d="M5.01494 26.7115C4.67803 26.8097 4.3957 27.0382 4.2263 27.346L1.19783 32.8898C0.847742 33.5318 1.08114 34.3362 1.72108 34.6874L2.30645 35.0084L24.1193 21.1167L5.01494 26.7115Z" fill="#FF0000"/>
<path d="M25.7571 22.0182C25.5519 21.3157 24.8197 20.9135 24.1195 21.1175L2.30664 35.0092L5.20712 36.6047C5.51392 36.7728 5.8753 36.8125 6.2122 36.7143L26.8958 30.6568C27.596 30.451 27.9969 29.7165 27.7936 29.0141L25.7571 22.0182Z" fill="#C1272D"/>
<path d="M29.5384 40.4472L29.6476 40.4604C29.7209 40.9551 29.8527 41.412 30.0447 41.8293C30.2367 42.2466 30.4832 42.6073 30.7844 42.9094C31.0855 43.2115 31.4394 43.4476 31.8478 43.6175C32.2544 43.7874 32.7099 43.8724 33.2125 43.8724C33.6604 43.8724 34.0839 43.8233 34.4811 43.7289C34.8782 43.6326 35.2264 43.4834 35.5238 43.2814C35.8212 43.0793 36.0565 42.8244 36.2296 42.5185C36.4028 42.2108 36.4894 41.8425 36.4894 41.4101C36.4894 41.0061 36.3821 40.67 36.1675 40.3981C35.9529 40.128 35.6706 39.8958 35.3243 39.7032C34.9761 39.5106 34.5789 39.3425 34.131 39.2009C33.683 39.0593 33.2237 38.9177 32.7532 38.7742C32.2826 38.6325 31.8234 38.474 31.3754 38.3003C30.9275 38.1265 30.5303 37.9112 30.1821 37.6525C29.8339 37.3957 29.5535 37.0861 29.3388 36.7236C29.1243 36.361 29.017 35.9135 29.017 35.3829C29.017 34.8145 29.1525 34.3349 29.4217 33.946C29.6909 33.557 30.0428 33.2397 30.4776 32.9962C30.9124 32.7526 31.4037 32.577 31.9514 32.4675C32.4991 32.358 33.0581 32.3032 33.6247 32.3032C34.3738 32.3032 35.0645 32.3806 35.6951 32.5373C36.3256 32.6941 36.9656 32.932 37.6149 33.253L36.9298 35.6321L36.7924 35.6189C36.7736 35.1696 36.6795 34.7504 36.5119 34.3595C36.3425 33.9705 36.1167 33.6344 35.8325 33.3549C35.5483 33.0755 35.217 32.8546 34.8387 32.6941C34.4585 32.5336 34.0501 32.4524 33.6115 32.4524C33.2087 32.4524 32.8247 32.5052 32.4596 32.611C32.0944 32.7167 31.7688 32.8697 31.4865 33.0717C31.2023 33.2737 30.9783 33.5249 30.8145 33.8289C30.6508 34.1329 30.5679 34.4747 30.5679 34.8599C30.5679 35.245 30.6753 35.5509 30.8898 35.8021C31.1044 36.0551 31.3886 36.2647 31.7406 36.4347C32.0926 36.6046 32.4953 36.7537 32.9471 36.8821C33.3988 37.0105 33.8618 37.1409 34.3324 37.2749C34.8029 37.409 35.2641 37.5563 35.7177 37.7224C36.1694 37.8867 36.5722 38.0963 36.9242 38.3493C37.2761 38.6024 37.5604 38.9139 37.7749 39.284C37.9895 39.656 38.0968 40.1111 38.0968 40.6529C38.0968 41.2855 37.965 41.818 37.6996 42.2485C37.4342 42.6791 37.0785 43.0265 36.6305 43.2871C36.1826 43.5495 35.6631 43.7345 35.074 43.8441C34.4848 43.9536 33.8694 44.0084 33.2294 44.0084C32.4426 44.0084 31.6954 43.9158 30.9877 43.7326C30.28 43.5495 29.5911 43.2512 28.9248 42.8376L29.5421 40.4434L29.5384 40.4472Z" fill="#FF0000"/>
<path d="M43.6755 44.01C42.9716 44.01 42.3354 43.8853 41.7688 43.638C41.2023 43.3906 40.7205 43.0507 40.3214 42.6202C39.9243 42.1897 39.6175 41.6856 39.4029 41.1077C39.1884 40.53 39.0811 39.9068 39.0811 39.2365C39.0811 38.5662 39.1902 37.996 39.4105 37.4408C39.6307 36.8857 39.9413 36.4022 40.3422 35.9888C40.7449 35.5752 41.2306 35.2523 41.8027 35.0182C42.375 34.7841 43.0111 34.667 43.7151 34.667C44.419 34.667 45.0684 34.786 45.6349 35.0238C46.2015 35.2618 46.6852 35.5903 47.088 36.0076C47.4908 36.4249 47.7994 36.9158 48.014 37.4804C48.2286 38.045 48.3359 38.6568 48.3359 39.3177C48.3359 39.9786 48.2286 40.6092 48.014 41.1814C47.7994 41.7554 47.4889 42.2501 47.0824 42.6674C46.6758 43.0847 46.1845 43.4133 45.6086 43.6512C45.0326 43.8891 44.3889 44.0081 43.6755 44.0081V44.01ZM40.8786 39.2497C40.8786 39.5443 40.8937 39.8615 40.9275 40.2052C40.9595 40.5488 41.016 40.8906 41.0988 41.2305C41.1816 41.5704 41.2908 41.897 41.4282 42.2142C41.5656 42.5314 41.7407 42.8109 41.9552 43.0526C42.1698 43.2962 42.422 43.4907 42.7099 43.638C42.9979 43.7853 43.3386 43.8589 43.732 43.8589C44.3174 43.8589 44.7917 43.7041 45.1587 43.3906C45.5239 43.0791 45.81 42.6938 46.0151 42.235C46.2203 41.7762 46.3596 41.2796 46.433 40.7433C46.5064 40.207 46.5421 39.718 46.5421 39.278C46.5421 38.9854 46.5252 38.67 46.4932 38.3358C46.4612 38.0016 46.4047 37.6693 46.3219 37.3388C46.2391 37.0084 46.1299 36.6893 45.9925 36.3834C45.8551 36.0756 45.682 35.8056 45.4712 35.5715C45.2604 35.3373 45.01 35.1523 44.7164 35.0144C44.4247 34.8766 44.0859 34.8086 43.7019 34.8086C43.3179 34.8086 42.9791 34.8766 42.6874 35.0144C42.3956 35.1523 42.1453 35.3373 41.9401 35.5715C41.735 35.8056 41.5637 36.0737 41.4263 36.3758C41.2889 36.678 41.1798 36.9952 41.0969 37.3256C41.0141 37.6561 40.9576 37.9884 40.9257 38.3226C40.8936 38.6568 40.8767 38.9665 40.8767 39.2516L40.8786 39.2497Z" fill="#FF0000"/>
<path d="M51.3005 43.9547C50.9711 43.9547 50.6418 43.9604 50.3124 43.9679C49.983 43.9774 49.6536 43.9906 49.3242 44.0095V43.8717C49.7722 43.8717 50.062 43.7546 50.1957 43.5205C50.3274 43.2863 50.3989 42.9219 50.4083 42.4271V34.2285C50.4083 33.9433 50.4065 33.6922 50.4008 33.4713C50.3952 33.2503 50.3688 33.0653 50.318 32.9142C50.2672 32.7632 50.1825 32.6461 50.0639 32.563C49.9454 32.4799 49.7722 32.4309 49.5425 32.412V32.2741C49.7346 32.2553 49.9473 32.2288 50.1806 32.191C50.414 32.1533 50.6474 32.108 50.8808 32.0532C51.1142 31.9985 51.3438 31.9362 51.5735 31.8682C51.8012 31.8002 52.0083 31.7228 52.1908 31.6416V42.5102C52.2002 42.9785 52.2755 43.3222 52.4167 43.5412C52.5579 43.7621 52.8439 43.8717 53.2731 43.8717V44.0095C52.9437 43.9906 52.6143 43.9774 52.2849 43.9679C51.9556 43.9585 51.6262 43.9547 51.2968 43.9547H51.3005Z" fill="#FF0000"/>
<path d="M55.7853 34.6973C56.2784 34.6878 56.7169 34.6746 57.1009 34.6558V39.2102C57.1009 39.7879 57.1348 40.3582 57.2044 40.9228C57.2722 41.4874 57.4058 41.9896 57.6014 42.4296C57.7973 42.8695 58.0742 43.2245 58.4319 43.4964C58.7873 43.7664 59.2595 43.893 59.8434 43.8741C60.3458 43.8646 60.7844 43.7174 61.1592 43.4341C61.5334 43.149 61.8438 42.7883 62.0905 42.3465C62.3371 41.9066 62.5256 41.4156 62.6532 40.8737C62.7814 40.3336 62.8492 39.7955 62.8589 39.2649V36.1701C62.8492 35.7018 62.7757 35.3582 62.6384 35.1391C62.5011 34.9182 62.2129 34.8087 61.7743 34.8087V34.6708C62.0848 34.6897 62.3542 34.7011 62.5837 34.7048C62.8116 34.7105 63.0183 34.7124 63.2012 34.7124C63.4478 34.7124 63.6791 34.7105 63.8938 34.7048C64.1086 34.7011 64.3569 34.6897 64.6411 34.6708V42.0576C64.6411 42.2313 64.6429 42.4239 64.6486 42.6354C64.6525 42.8469 64.6822 43.0414 64.7368 43.2207C64.7915 43.4001 64.8838 43.5512 65.012 43.6739C65.1396 43.7986 65.3281 43.859 65.5747 43.859V44.0101C65.0985 44.0101 64.6901 43.9742 64.3472 43.9005C64.0049 43.8268 63.7224 43.7061 63.5042 43.5361C63.2838 43.3662 63.122 43.1358 63.0166 42.8412C62.9113 42.5486 62.8589 42.1803 62.8589 41.7404V40.6679C62.7757 41.0814 62.6555 41.4836 62.4954 41.8782C62.3354 42.2728 62.1303 42.6259 61.878 42.9375C61.6257 43.2491 61.33 43.504 60.986 43.7003C60.6431 43.8986 60.2575 44.0006 59.8263 44.0101C59.1222 44.0383 58.494 43.9458 57.9403 43.7343C57.387 43.5229 56.9202 43.2132 56.5419 42.8054C56.1617 42.3975 55.8699 41.899 55.6648 41.3118C55.4596 40.7245 55.3523 40.0693 55.3429 39.3442V36.2362C55.3335 35.7509 55.262 35.3903 55.1302 35.1561C54.9985 34.922 54.7067 34.8049 54.2588 34.8049V34.6671C54.7801 34.6954 55.2865 34.703 55.7815 34.6954L55.7853 34.6973Z" fill="#FF0000"/>
<path d="M69.0451 32.3857H69.1955V34.6686H70.1273V34.8064H69.1955V42.2555C69.1955 42.5633 69.2239 42.8352 69.2786 43.075C69.3333 43.3129 69.4256 43.5036 69.5532 43.6453C69.6813 43.7869 69.8733 43.8587 70.129 43.8587V44.0097C69.6528 44.0097 69.2484 43.9738 68.9112 43.9002C68.5746 43.8265 68.2978 43.7057 68.0813 43.5357C67.8632 43.3658 67.7031 43.1355 67.5977 42.8409C67.494 42.5482 67.4416 42.18 67.4416 41.74V36.6229C67.4416 36.3472 67.4394 36.1018 67.4337 35.8865C67.4285 35.6713 67.4018 35.4881 67.3511 35.3371C67.3004 35.186 67.2138 35.0651 67.0913 34.9726C66.9672 34.882 66.7923 34.8253 66.5645 34.8083V34.6705C68.1377 34.6705 68.9659 33.9096 69.0468 32.3876L69.0451 32.3857Z" fill="#FF0000"/>
<path d="M71.1296 43.8723C71.5773 43.8723 71.8673 43.7552 72.0011 43.5211C72.1327 43.287 72.2045 42.9225 72.2136 42.4278V37.256C72.2136 36.9727 72.2119 36.7197 72.2062 36.4988C72.2005 36.2778 72.1743 36.0928 72.1236 35.9417C72.0729 35.7907 71.988 35.6736 71.8696 35.5905C71.7505 35.5074 71.5773 35.4584 71.3478 35.4394V35.3016C71.5398 35.2828 71.7528 35.2563 71.9863 35.2185C72.2193 35.1826 72.4528 35.1354 72.6864 35.0807C72.9199 35.026 73.1495 34.9636 73.379 34.8957C73.6068 34.8277 73.8136 34.7521 73.9965 34.669V42.5109C74.0056 42.9792 74.0808 43.3228 74.222 43.5418C74.3633 43.7628 74.6492 43.8723 75.0787 43.8723V44.0101C74.8036 43.9913 74.4801 43.9781 74.1053 43.9686C73.731 43.9592 73.3317 43.9554 72.9119 43.9554C72.6186 43.9554 72.323 43.961 72.0199 43.9686C71.7186 43.9781 71.4213 43.9913 71.1279 44.0101V43.8723H71.1296ZM72.0484 33.0037C72.0484 32.7016 72.1407 32.4448 72.323 32.2333C72.5058 32.0218 72.7428 31.916 73.0361 31.916C73.3471 31.916 73.5915 32.0237 73.7703 32.2389C73.9492 32.4542 74.0375 32.7091 74.0375 33.0018C74.0375 33.2944 73.9435 33.5342 73.7572 33.7438C73.5693 33.9553 73.33 34.061 73.0361 34.061C72.7428 34.061 72.5166 33.9666 72.3304 33.7797C72.1441 33.5928 72.0501 33.3322 72.0501 33.0018L72.0484 33.0037Z" fill="#FF0000"/>
<path d="M80.6589 44.01C79.9549 44.01 79.3186 43.8853 78.7524 43.638C78.1857 43.3906 77.7038 43.0507 77.305 42.6202C76.908 42.1897 76.601 41.6856 76.3863 41.1077C76.1721 40.53 76.0645 39.9068 76.0645 39.2365C76.0645 38.5662 76.1738 37.996 76.3937 37.4408C76.6141 36.8857 76.9246 36.4022 77.3256 35.9888C77.7266 35.5752 78.2141 35.2523 78.786 35.0182C79.3568 34.7841 79.9947 34.667 80.6988 34.667C81.4022 34.667 82.0516 34.786 82.6183 35.0238C83.1851 35.2618 83.6687 35.5903 84.0714 36.0076C84.4741 36.4249 84.7828 36.9158 84.9976 37.4804C85.2123 38.045 85.3194 38.6568 85.3194 39.3177C85.3194 39.9786 85.2123 40.6092 84.9976 41.1814C84.7828 41.7535 84.4724 42.2501 84.0657 42.6674C83.659 43.0847 83.168 43.4133 82.5921 43.6512C82.0163 43.8891 81.3726 44.0081 80.6589 44.0081V44.01ZM77.8621 39.2497C77.8621 39.5443 77.8769 39.8615 77.9088 40.2052C77.9413 40.5488 77.9977 40.8906 78.0803 41.2305C78.1634 41.5704 78.2722 41.897 78.4095 42.2142C78.5474 42.5314 78.7222 42.8109 78.9387 43.0526C79.1534 43.2962 79.4052 43.4907 79.6934 43.638C79.9816 43.7853 80.3222 43.8589 80.7153 43.8589C81.3008 43.8589 81.7753 43.7041 82.1421 43.3906C82.5073 43.0791 82.7932 42.6938 82.9988 42.235C83.2039 41.7762 83.3429 41.2796 83.4163 40.7433C83.4898 40.207 83.5257 39.718 83.5257 39.278C83.5257 38.9854 83.5086 38.67 83.4767 38.3358C83.4448 38.0016 83.3884 37.6693 83.3053 37.3388C83.2227 37.0084 83.1133 36.6893 82.976 36.3834C82.8388 36.0775 82.6656 35.8056 82.4548 35.5715C82.2441 35.3373 81.9935 35.1523 81.7001 35.0144C81.4062 34.8766 81.0696 34.8086 80.6851 34.8086C80.3012 34.8086 79.9628 34.8766 79.6706 35.0144C79.3773 35.1523 79.1289 35.3373 78.9239 35.5715C78.7182 35.8056 78.5474 36.0737 78.4095 36.3758C78.2722 36.678 78.1634 36.9952 78.0803 37.3256C77.9977 37.6561 77.9413 37.9884 77.9088 38.3226C77.8769 38.6568 77.8621 38.9665 77.8621 39.2516V39.2497Z" fill="#FF0000"/>
<path d="M86.3096 43.8718C86.7579 43.8718 87.0473 43.7548 87.1811 43.5206C87.3127 43.2865 87.3845 42.9221 87.3936 42.4273V36.621C87.3936 36.3378 87.3919 36.0848 87.3862 35.8638C87.3805 35.6429 87.3543 35.4579 87.3036 35.3068C87.2529 35.1558 87.168 35.0387 87.0496 34.9556C86.9311 34.8725 86.7579 34.8234 86.5278 34.8046V34.6667C86.7198 34.6478 86.9328 34.6214 87.1663 34.5836C87.3993 34.5478 87.6328 34.5006 87.8664 34.4458C88.0999 34.391 88.3295 34.3288 88.559 34.2608C88.7869 34.1928 88.9936 34.1173 89.1765 34.0342V38.0108C89.2591 37.5708 89.3775 37.1516 89.5319 36.7513C89.6863 36.3529 89.8839 36.0017 90.1214 35.6996C90.3584 35.3974 90.6443 35.152 90.9776 34.9632C91.3108 34.7744 91.6987 34.6762 92.1373 34.6667C92.8407 34.6384 93.4713 34.7309 94.0284 34.9424C94.586 35.1539 95.0582 35.4636 95.4478 35.8714C95.8357 36.2793 96.1348 36.774 96.3455 37.3574C96.5563 37.9409 96.6696 38.5942 96.6884 39.3174V42.4406C96.6975 42.9277 96.767 43.2865 96.9009 43.5206C97.0325 43.7548 97.3241 43.8718 97.7724 43.8718V44.0097C97.4523 43.9908 97.1344 43.9776 96.82 43.9681C96.5039 43.9587 96.2008 43.9549 95.9092 43.9549C95.617 43.9549 95.3442 43.9568 95.0941 43.9625C94.8418 43.9681 94.6253 43.9738 94.4425 43.9833C94.2226 43.9927 94.0267 44.0021 93.8535 44.0115V43.8737C94.1001 43.8737 94.2938 43.8454 94.4373 43.7906C94.578 43.7359 94.6857 43.6509 94.7592 43.5357C94.8321 43.4206 94.8794 43.2714 94.9021 43.0882C94.9244 42.9051 94.9357 42.6898 94.9357 42.4425V39.4704C94.9357 38.8567 94.8942 38.2638 94.8116 37.6954C94.729 37.1271 94.5837 36.6248 94.373 36.1886C94.1622 35.7525 93.8763 35.4107 93.5169 35.1633C93.1552 34.916 92.6921 34.797 92.1236 34.8065C91.6212 34.8253 91.1866 34.9745 90.8215 35.2539C90.4564 35.5334 90.1533 35.8941 89.9158 36.334C89.6789 36.774 89.4983 37.2649 89.3741 37.8069C89.2499 38.3487 89.1839 38.885 89.1742 39.4156V42.5104C89.1839 42.9787 89.2591 43.3224 89.4003 43.5414C89.5416 43.7624 89.8275 43.8718 90.2564 43.8718V44.0097C89.799 43.9908 89.4282 43.9757 89.1463 43.9625C88.8621 43.9493 88.5983 43.9417 88.35 43.9417C88.0845 43.9417 87.81 43.9493 87.5275 43.9625C87.2432 43.9757 86.865 43.9927 86.3888 44.0097H86.3057V43.8718H86.3096Z" fill="#FF0000"/>
<path d="M99.8986 38.919C99.6234 38.7075 99.4207 38.4564 99.2885 38.1618C99.1569 37.8691 99.0949 37.5632 99.104 37.2479C99.1137 36.9306 99.1985 36.6191 99.358 36.3132C99.5181 36.0054 99.7533 35.7316 100.064 35.4881C100.375 35.2445 100.766 35.0481 101.237 34.897C101.707 34.746 102.262 34.6704 102.903 34.6704C103.241 34.6704 103.55 34.6856 103.828 34.7177C104.107 34.7497 104.372 34.7913 104.625 34.8422C104.875 34.8933 105.116 34.9556 105.343 35.0273C105.571 35.1009 105.805 35.1784 106.044 35.2614L105.536 37.2554H105.427C105.382 36.8985 105.291 36.5681 105.159 36.2641C105.026 35.962 104.858 35.7033 104.651 35.4861C104.446 35.2709 104.205 35.1009 103.93 34.9764C103.655 34.8517 103.35 34.7913 103.011 34.7913C102.398 34.7913 101.899 34.9008 101.509 35.1217C101.12 35.3426 100.841 35.6013 100.674 35.8997C100.505 36.198 100.443 36.5058 100.489 36.8212C100.535 37.1384 100.691 37.3914 100.956 37.584C101.184 37.7482 101.512 37.8842 101.937 37.99C102.362 38.0957 102.812 38.2014 103.288 38.3072C103.764 38.4129 104.232 38.5376 104.694 38.6792C105.155 38.8208 105.538 39.0077 105.839 39.2362C106.121 39.4571 106.34 39.7271 106.49 40.0481C106.64 40.3691 106.712 40.7071 106.703 41.0602C106.693 41.4133 106.601 41.7664 106.428 42.1195C106.255 42.4726 105.988 42.7898 105.626 43.0693C105.265 43.3488 104.805 43.5753 104.248 43.7509C103.691 43.9246 103.029 44.0115 102.261 44.0115C101.611 44.0115 101.013 43.9454 100.465 43.8114C99.9174 43.6792 99.3489 43.4601 98.7656 43.158L99.3284 41.1357H99.3962C99.4412 41.5493 99.5466 41.9231 99.7123 42.2573C99.8758 42.5915 100.089 42.8786 100.35 43.1165C100.61 43.3544 100.917 43.5413 101.268 43.6735C101.62 43.8076 102.003 43.8737 102.413 43.8737C103.098 43.8737 103.648 43.7434 104.058 43.4809C104.469 43.2185 104.764 42.9126 104.943 42.5594C105.122 42.2064 105.19 41.8514 105.148 41.4926C105.106 41.1357 104.971 40.8544 104.743 40.6542C104.532 40.4711 104.224 40.3257 103.817 40.22C103.411 40.1142 102.974 40.0122 102.507 39.9103C102.04 39.8102 101.575 39.6855 101.109 39.5383C100.642 39.391 100.241 39.1852 99.902 38.919H99.8986Z" fill="#FF0000"/>
<path d="M49.1116 48.2502C49.1304 48.2578 49.1398 48.2729 49.1398 48.2974C49.1398 48.322 49.1342 48.3484 49.1229 48.3768C49.1116 48.4051 49.1022 48.4296 49.0965 48.4504C48.8951 48.9225 48.658 49.3737 48.3831 49.8061C48.1084 50.2386 47.779 50.62 47.3931 50.9485C47.1899 51.1185 46.9734 51.2714 46.7475 51.4093C46.5217 51.5471 46.277 51.6623 46.0172 51.7548C45.8516 51.8152 45.7029 51.8568 45.5674 51.8794C45.4319 51.9021 45.2757 51.9134 45.095 51.9116C44.9933 51.9153 44.8917 51.9116 44.79 51.904C44.6884 51.8964 44.5849 51.8776 44.4814 51.8511C43.9995 51.7133 43.6419 51.4187 43.4066 50.9693C43.3276 50.8126 43.2655 50.654 43.2203 50.4916C43.1751 50.3311 43.1412 50.1687 43.1205 50.0063C43.0659 49.5701 43.0641 49.1434 43.1149 48.7223C43.1827 48.1369 43.3012 47.5742 43.4706 47.0361C43.64 46.4961 43.8527 45.9787 44.1106 45.4802C44.391 44.927 44.7355 44.4209 45.1458 43.9602C45.43 43.6411 45.7519 43.3673 46.117 43.1407C46.388 42.967 46.6892 42.8556 47.0205 42.8008C47.1673 42.7744 47.3141 42.782 47.4628 42.8197C47.6961 42.8764 47.8449 43.0198 47.907 43.2502C47.9521 43.4372 47.9521 43.6694 47.907 43.9451C47.8618 44.2208 47.7903 44.5097 47.6943 44.8099C47.5964 45.1101 47.4892 45.3896 47.3724 45.6464C47.2538 45.9032 47.1466 46.1071 47.0487 46.2601C47.0205 46.2997 46.9847 46.3224 46.9433 46.3318C46.9019 46.3394 46.8567 46.3375 46.8059 46.3242C46.7795 46.3186 46.7588 46.3035 46.7438 46.2827C46.7287 46.2601 46.725 46.2393 46.7344 46.2204C46.7438 46.1883 46.755 46.1581 46.772 46.1298C46.7795 46.1146 46.7871 46.0958 46.7965 46.0769C46.8322 45.99 46.8755 45.8937 46.9226 45.7899C47.0261 45.5557 47.1353 45.3008 47.2482 45.0233C47.3612 44.7457 47.4534 44.4681 47.523 44.1924C47.5926 43.9168 47.619 43.6675 47.6002 43.4428C47.5663 43.0652 47.3743 42.9236 47.028 43.0198C46.8755 43.0614 46.7325 43.118 46.6007 43.1879C46.469 43.2578 46.3429 43.3352 46.2205 43.424C45.9796 43.5996 45.7594 43.794 45.5598 44.0093C45.3604 44.2226 45.1796 44.4512 45.014 44.6947C44.1971 45.8843 43.6965 47.2344 43.5101 48.7431C43.4556 49.1793 43.4574 49.6268 43.5139 50.08C43.5459 50.3405 43.6212 50.5992 43.7417 50.8504C43.864 51.0977 44.007 51.2884 44.1746 51.4206C44.3421 51.5528 44.5152 51.6377 44.6959 51.6793C44.8766 51.7208 45.046 51.7321 45.2041 51.7133C45.4827 51.6812 45.7462 51.6075 45.9928 51.4942C46.4821 51.2714 46.8812 51.0335 47.1918 50.7805C47.5023 50.5274 47.7621 50.2631 47.9729 49.9856C48.1837 49.708 48.3813 49.4172 48.5639 49.1132C48.6372 48.9923 48.7013 48.8772 48.7558 48.7657C48.8199 48.6336 48.9027 48.4863 49.0062 48.3239C49.0401 48.2729 49.0796 48.2502 49.121 48.2559L49.1116 48.2502Z" fill="black"/>
<path d="M51.1501 48.4774C51.1124 48.5378 51.071 48.602 51.0258 48.6699C50.8056 48.9928 50.6287 49.1854 50.4951 49.2477C50.3614 49.31 50.2504 49.3271 50.16 49.2987C50.0716 49.2704 49.9982 49.2194 49.9436 49.1495C49.8871 49.0797 49.8495 49.0004 49.8269 48.9116C49.7347 49.125 49.5728 49.2326 49.345 49.2326C49.2171 49.2326 49.1135 49.176 49.0344 49.0627C48.9554 48.9494 48.9046 48.8078 48.8839 48.6379C48.8632 48.4679 48.8782 48.2942 48.9328 48.1186C48.946 48.06 48.9817 48.0204 49.0401 47.9996C49.0797 47.9845 49.123 47.9845 49.1662 48.0034C49.2095 48.0223 49.2321 48.0506 49.2358 48.0884C49.2358 48.128 49.2321 48.1658 49.2264 48.2035C49.2189 48.2319 49.2133 48.2602 49.2114 48.2866C49.2057 48.3905 49.2077 48.5056 49.217 48.6303C49.2264 48.7549 49.2603 48.8626 49.3149 48.9513C49.3695 49.0231 49.4297 49.0306 49.4975 48.9777C49.5634 48.9248 49.6217 48.8418 49.6725 48.7304C49.712 48.6416 49.7422 48.5529 49.7648 48.466C49.7873 48.3791 49.8005 48.3112 49.8081 48.2621L49.8175 48.2224C49.8269 48.1847 49.8381 48.1469 49.8475 48.111C49.8626 48.0582 49.8796 48.0053 49.8947 47.9543C49.9228 47.8561 49.9925 47.8146 50.1036 47.8297C50.1713 47.8354 50.209 47.8694 50.2146 47.9298C50.2202 48.0128 50.2221 48.0959 50.2184 48.1771C50.2146 48.264 50.2108 48.349 50.2052 48.432C50.1977 48.5529 50.192 48.6718 50.1902 48.7908C50.1863 48.9645 50.2598 49.0325 50.4066 48.9966C50.5534 48.9607 50.7473 48.7492 50.9863 48.3603C51.0089 48.3206 51.0258 48.2753 51.0334 48.2224C51.0409 48.1696 51.0654 48.1129 51.1068 48.0487C51.1613 47.9713 51.2536 47.926 51.3854 47.9147C51.4493 47.909 51.5095 47.9128 51.5642 47.9241C51.6206 47.9373 51.6714 47.9638 51.7185 48.0053C51.7279 48.0147 51.7354 48.026 51.7411 48.0393C51.7467 48.0525 51.743 48.0676 51.7354 48.0865C51.7204 48.1148 51.6959 48.1299 51.6639 48.1299C51.6413 48.1299 51.6187 48.1262 51.5961 48.1204C51.5736 48.111 51.5528 48.1016 51.534 48.0922L51.4964 48.0732C51.455 48.0582 51.423 48.06 51.4004 48.0789C51.3778 48.0997 51.3665 48.1299 51.3665 48.1734C51.3703 48.247 51.4004 48.3263 51.4569 48.4112C51.5134 48.4962 51.5717 48.5736 51.6281 48.6435C51.6507 48.668 51.6714 48.6926 51.6865 48.7152C51.7016 48.7304 51.7448 48.7285 51.8126 48.7077C51.8804 48.687 52.0046 48.6284 52.1871 48.5321C52.3679 48.4358 52.4601 48.4056 52.4601 48.4377C52.4601 48.4698 52.3904 48.5302 52.2493 48.6152C52.1081 48.7002 52.0046 48.7643 51.9387 48.8078C51.8728 48.8512 51.8389 48.8776 51.8389 48.8871C51.8521 48.9154 51.8653 48.9645 51.8804 49.0325C51.8954 49.1004 51.9011 49.1741 51.8973 49.2553C51.8935 49.3346 51.8672 49.4063 51.8201 49.4687C51.7731 49.531 51.6922 49.5687 51.5811 49.582C51.4701 49.5914 51.3703 49.5744 51.2818 49.531C51.1934 49.4875 51.1388 49.4252 51.1162 49.344C51.0936 49.2628 51.1199 49.1684 51.1971 49.0589C51.2479 48.9985 51.3082 48.9456 51.3797 48.9003C51.4042 48.8852 51.4287 48.8663 51.455 48.8474C51.3703 48.7549 51.2893 48.6586 51.2121 48.5604C51.1896 48.5321 51.1689 48.5038 51.1501 48.4792V48.4774ZM51.4889 49.4158C51.5303 49.412 51.5585 49.3894 51.5717 49.3459C51.5848 49.3025 51.5886 49.2553 51.5867 49.2024C51.583 49.1495 51.5792 49.1118 51.5773 49.0854C51.5717 49.0703 51.5623 49.0589 51.5472 49.0551C51.5322 49.0514 51.519 49.0514 51.5058 49.057C51.4587 49.0948 51.423 49.142 51.4004 49.2006C51.3778 49.2591 51.3797 49.31 51.406 49.3535C51.4154 49.3686 51.4268 49.3837 51.4399 49.395C51.4531 49.4063 51.4719 49.4139 51.4907 49.4177L51.4889 49.4158Z" fill="black"/>
<path d="M53.9031 48.5777C53.9821 48.5002 54.0179 48.4814 54.0066 48.5192C53.9953 48.5569 53.952 48.6268 53.8748 48.7288C53.7976 48.8307 53.7035 48.9384 53.5887 49.0573C53.4739 49.1744 53.3535 49.2764 53.2255 49.3632C53.0975 49.4501 52.977 49.4973 52.8622 49.5029C52.721 49.5029 52.61 49.4614 52.5253 49.3783C52.4406 49.2952 52.3804 49.1838 52.3446 49.0478C52.3088 48.9119 52.2938 48.7628 52.2994 48.6022C52.3069 48.4229 52.3126 48.2454 52.3182 48.066C52.322 47.9753 52.3239 47.8885 52.3277 47.8016C52.3352 47.6581 52.3408 47.5146 52.3427 47.3711C52.3465 47.3258 52.3389 47.288 52.3202 47.2578C52.3032 47.2276 52.2712 47.2106 52.226 47.2068C52.1752 47.203 52.1112 47.203 52.0359 47.203H51.8646C51.7987 47.1955 51.7536 47.1785 51.731 47.1502C51.7084 47.1218 51.7272 47.0936 51.7837 47.0633C51.8251 47.0482 51.8722 47.0388 51.9305 47.0369C51.987 47.0369 52.0434 47.0369 52.098 47.0388C52.1319 47.0425 52.1639 47.0425 52.1883 47.0425C52.273 47.0425 52.3258 47.0293 52.3446 47.0029C52.3634 46.9765 52.3747 46.9236 52.3785 46.8424C52.3841 46.7574 52.3879 46.6725 52.3916 46.5875C52.3954 46.5422 52.3973 46.4969 52.4029 46.4534C52.4029 46.3873 52.4199 46.3269 52.4557 46.2722C52.4933 46.2212 52.5404 46.2023 52.5987 46.2136C52.6495 46.2268 52.6777 46.2589 52.6834 46.3099C52.6871 46.3949 52.689 46.4798 52.689 46.5648C52.6928 46.612 52.6928 46.6612 52.689 46.7084C52.689 46.7593 52.689 46.8122 52.6928 46.8669C52.689 46.9425 52.6984 46.9897 52.7192 47.0105C52.7398 47.0312 52.7888 47.0406 52.8697 47.0406H53.2556C53.3139 47.0406 53.4852 47.0369 53.7713 47.0293C54.0574 47.0218 54.2118 47.0444 54.2343 47.0992C54.2569 47.154 54.0762 47.1861 53.6904 47.1936C53.457 47.2068 53.2763 47.2125 53.1502 47.2125C53.0655 47.2087 52.9883 47.2087 52.9206 47.2087C52.8057 47.2087 52.7361 47.2295 52.7098 47.2692C52.6834 47.3088 52.6702 47.39 52.674 47.5089C52.6702 47.6128 52.6665 47.7374 52.6589 47.8828C52.6401 48.183 52.6307 48.4889 52.6307 48.8024C52.6382 49.0177 52.6759 49.1574 52.7455 49.2197C52.8151 49.2839 52.9055 49.2952 53.0165 49.2556C53.1276 49.2159 53.248 49.1441 53.3779 49.0422C53.5078 48.9402 53.6358 48.8307 53.7638 48.7117C53.792 48.6759 53.824 48.6419 53.8636 48.6098C53.8767 48.5985 53.888 48.5871 53.9011 48.5777H53.9031Z" fill="black"/>
<path d="M55.5428 48.4338C55.5654 48.4111 55.5766 48.4395 55.5766 48.5131C55.5766 48.5886 55.5108 48.6925 55.3734 48.8265C55.236 48.9606 55.0948 49.0248 54.9499 49.0172C54.9179 49.0135 54.8915 49.0172 54.869 49.0248C54.8463 49.0323 54.8275 49.0512 54.8106 49.0796C54.7955 49.106 54.7767 49.1287 54.7541 49.1513L54.7504 49.1551C54.66 49.2514 54.5547 49.3137 54.4342 49.3439C54.3137 49.3741 54.1989 49.3647 54.0897 49.3156C53.9805 49.2665 53.9034 49.1721 53.8544 49.0343C53.8205 48.9096 53.8168 48.785 53.845 48.6623C53.8695 48.5527 53.909 48.4508 53.9636 48.3545C54.0295 48.2261 54.1161 48.1373 54.2234 48.0825C54.3306 48.0297 54.4511 47.9995 54.5847 47.9938C54.7843 47.9844 54.9104 48.0788 54.9631 48.2771C54.9951 48.3923 55.0026 48.5074 54.9876 48.6264C54.9838 48.6528 54.9781 48.6811 54.9725 48.7095C54.9668 48.7283 54.9612 48.7472 54.9574 48.7661C54.9518 48.8303 54.98 48.8586 55.0402 48.8529C55.2078 48.8247 55.3753 48.683 55.5409 48.43L55.5428 48.4338ZM54.3626 49.1759C54.4662 49.1287 54.5377 49.0475 54.5772 48.9323C54.4059 48.8228 54.293 48.666 54.2346 48.4621C54.182 48.5584 54.1481 48.6698 54.1368 48.7982C54.1255 48.9266 54.1368 49.0323 54.1744 49.1154C54.2121 49.1985 54.2742 49.2193 54.3626 49.1777V49.1759ZM54.6544 48.7057C54.6826 48.6641 54.6977 48.6151 54.7033 48.5546C54.709 48.4961 54.7052 48.4357 54.6939 48.3771C54.6826 48.3186 54.6675 48.2714 54.6487 48.2393C54.6299 48.2053 54.6092 48.1959 54.5866 48.2091C54.5471 48.2431 54.5264 48.294 54.5208 48.3601C54.517 48.4262 54.5264 48.4904 54.5508 48.5565C54.5753 48.6226 54.6092 48.6717 54.6544 48.7076V48.7057Z" fill="black"/>
<path d="M58.1517 48.8213V48.8175C58.1648 48.8043 58.195 48.776 58.2457 48.7307C58.2947 48.6873 58.3477 48.6438 58.4001 48.6042C58.4548 48.5645 58.4946 48.5438 58.5169 48.5419C58.5396 48.54 58.5357 48.5759 58.4998 48.6495C58.4946 48.659 58.485 48.6722 58.4736 48.6854C58.4622 48.6986 58.4514 48.7118 58.4434 48.725C58.44 48.7288 58.436 48.7307 58.4326 48.7363C58.2104 48.9762 58.035 49.1423 57.9091 49.233C57.7832 49.3255 57.6585 49.3689 57.5366 49.3633C57.4084 49.3501 57.3237 49.301 57.2785 49.2141C57.2333 49.1272 57.2126 49.0234 57.2126 48.8987C57.2126 48.7741 57.2239 48.6495 57.2427 48.5211C57.2634 48.3889 57.271 48.2757 57.2672 48.1831C57.2634 48.0906 57.2314 48.0339 57.1712 48.0189C57.1147 48.0151 57.0564 48.0623 56.9981 48.1586C56.9378 48.2567 56.8814 48.3701 56.8287 48.5003C56.7759 48.6287 56.7308 48.7439 56.695 48.8421C56.6762 48.895 56.663 48.9346 56.6536 48.9573C56.6273 49.0083 56.5915 49.0423 56.5426 49.0574C56.4955 49.0725 56.4447 49.0706 56.3901 49.0479C56.3581 49.0271 56.3393 49.0007 56.3317 48.9649C56.3223 48.8874 56.3205 48.8081 56.3223 48.725C56.3261 48.6722 56.3261 48.6193 56.3223 48.5683V48.4437C56.3223 48.4191 56.3205 48.3965 56.3148 48.3757C56.3092 48.355 56.2997 48.3455 56.2828 48.3455C56.2583 48.3417 56.2282 48.3719 56.1925 48.4342C56.1567 48.4966 56.1209 48.5702 56.0852 48.6571C56.0494 48.7439 56.0156 48.8213 55.9873 48.8912C55.9609 48.9516 55.944 48.9931 55.9346 49.0158C55.9309 49.0253 55.9252 49.0366 55.9195 49.0461C55.8913 49.1027 55.8612 49.1593 55.8329 49.2179C55.8085 49.2651 55.7671 49.2934 55.7087 49.3029C55.5921 49.3236 55.528 49.2745 55.5186 49.1593C55.5092 48.8629 55.5017 48.5664 55.4941 48.2681C55.4941 48.1907 55.5412 48.1642 55.6372 48.1869C55.7332 48.2095 55.7859 48.2586 55.7953 48.3361C55.8047 48.4607 55.8179 48.5249 55.8386 48.5249C55.8574 48.5249 55.8988 48.472 55.9591 48.3587C55.9911 48.3058 56.025 48.2511 56.0588 48.1963C56.1003 48.1246 56.1548 48.0604 56.2264 48.0037C56.2979 47.9565 56.3694 47.9414 56.4352 47.9622C56.503 47.9811 56.5557 48.0321 56.5934 48.1151C56.6085 48.1491 56.6254 48.168 56.6404 48.1718C56.6555 48.1755 56.6724 48.168 56.6875 48.1491C56.7026 48.1321 56.7195 48.1114 56.7346 48.0868C56.7477 48.0604 56.7628 48.0377 56.7778 48.0189C56.8682 47.9206 56.9736 47.8508 57.0978 47.813C57.222 47.7753 57.3331 47.7753 57.4347 47.8168C57.5366 47.8583 57.593 47.949 57.6095 48.0906C57.6152 48.2586 57.6044 48.4305 57.5759 48.6061C57.5645 48.691 57.5554 48.7703 57.5474 48.8459C57.5423 49.0102 57.5719 49.0989 57.6363 49.1159C57.7018 49.131 57.7809 49.1065 57.8749 49.0385C57.9695 48.9705 58.0595 48.8969 58.1483 48.8175L58.1517 48.8213Z" fill="black"/>
<path d="M69.2379 42.4428C69.3621 42.5222 69.4037 42.6355 69.3644 42.779C69.3376 42.8488 69.304 42.913 69.2624 42.9754C69.1929 43.0735 69.1098 43.1623 69.0141 43.2397C68.5681 43.6192 68.056 43.8552 67.4761 43.9421C67.348 43.9629 67.2221 43.9855 67.0939 44.0101C67.0358 44.0233 66.9812 44.0195 66.9322 44.0007C66.9003 43.9874 66.8855 43.9667 66.8855 43.9364C66.8872 43.9232 66.8929 43.91 66.9003 43.8987C66.906 43.8855 66.9151 43.8779 66.9231 43.876C66.9641 43.8534 67.0074 43.8364 67.0529 43.8288C67.1093 43.8194 67.1657 43.808 67.2238 43.7986C67.2654 43.7948 67.3087 43.7892 67.352 43.7816C67.6379 43.7287 67.9016 43.6324 68.1409 43.4927C68.3795 43.353 68.6 43.1792 68.805 42.9716C68.8654 42.913 68.9121 42.8451 68.9446 42.7639C68.9782 42.6676 68.952 42.5996 68.8637 42.5599C68.7486 42.5184 68.6302 42.4958 68.5094 42.4919H67.8732C67.4949 42.4919 67.1167 42.5127 66.7419 42.5524C66.366 42.592 65.9912 42.6392 65.6164 42.6921C65.02 42.7695 64.4271 42.862 63.8341 42.9716C63.8381 43.0508 63.8381 43.132 63.8381 43.2114V51.0192C63.8381 51.2684 63.8341 51.5158 63.825 51.767C63.825 51.901 63.7606 51.9558 63.633 51.935C63.5687 51.9255 63.5328 51.8897 63.5219 51.8311C63.5219 51.8047 63.5219 51.7783 63.518 51.7537C63.5088 51.6329 63.5032 51.5102 63.5032 51.3855C63.4992 50.5811 63.4992 49.7748 63.4992 48.9667V43.0358C63.4992 43.0358 63.4861 43.0414 63.4804 43.0414C63.4616 43.0452 63.4445 43.0471 63.4274 43.0508C62.9552 43.1434 62.4887 43.2548 62.0273 43.3813C61.5659 43.5078 61.1108 43.6589 60.6625 43.8326C60.5025 43.893 60.3464 43.9591 60.1903 44.0327C60.1431 44.0554 60.0963 44.0762 60.0531 44.097C59.9665 44.1291 59.8964 44.1857 59.8457 44.2688C59.8121 44.3198 59.7591 44.3462 59.6879 44.3481C59.6179 44.3481 59.5558 44.3292 59.5011 44.2895C59.4601 44.2499 59.4544 44.2083 59.4863 44.163C59.5199 44.1158 59.5632 44.0743 59.6122 44.0403C59.6612 44.0063 59.7141 43.9761 59.7688 43.9459C60.0417 43.8062 60.3202 43.6853 60.6044 43.5815C61.3273 43.3171 62.0609 43.1038 62.8105 42.9395C63.0401 42.8923 63.2696 42.8451 63.4992 42.8016C63.5009 42.7544 63.5049 42.7072 63.5088 42.6619C63.518 42.6015 63.5482 42.558 63.5971 42.5354C63.6461 42.5127 63.7008 42.5146 63.7629 42.543C63.8079 42.5675 63.8284 42.6052 63.8267 42.6581C63.8267 42.6864 63.8267 42.7148 63.8307 42.7431C64.3798 42.6468 64.9317 42.5599 65.4865 42.4844C66.063 42.4013 66.6405 42.3371 67.2204 42.2918C67.6721 42.2597 68.1238 42.2559 68.5772 42.2786C68.7241 42.288 68.8688 42.3107 69.0124 42.3466C69.095 42.3654 69.1702 42.3994 69.2396 42.4466L69.2379 42.4428Z" fill="black"/>
<path d="M65.8626 48.7421C65.8176 48.8347 65.7424 48.9385 65.633 49.0518C65.5242 49.1651 65.4035 49.2368 65.2662 49.2671C65.1289 49.2973 64.999 49.25 64.8749 49.1254C64.8276 49.0707 64.7917 49.0065 64.7689 48.9347C64.7467 48.8629 64.7393 48.7912 64.745 48.7213V48.6496C64.745 48.576 64.7484 48.4891 64.7541 48.3928C64.7598 48.2946 64.7746 48.2077 64.7974 48.1284C64.8202 48.0491 64.8555 48.0038 64.9028 47.9868C65.0401 47.9528 65.1152 48 65.1266 48.1303C65.1266 48.1719 65.1266 48.2153 65.1232 48.2568C65.1192 48.2795 65.1192 48.2984 65.1192 48.3173C65.1152 48.3777 65.1135 48.44 65.1101 48.5004C65.1101 48.5476 65.1078 48.5967 65.1044 48.6439C65.1004 48.8535 65.1477 48.98 65.2457 49.0197C65.3414 49.0593 65.4525 49.0178 65.5766 48.8932C65.7008 48.7685 65.7817 48.6647 65.8216 48.5816C65.8592 48.4985 65.8871 48.4816 65.9041 48.5288C65.9212 48.576 65.9081 48.6477 65.8626 48.7403V48.7421ZM65.0987 47.5393C65.0799 47.5544 65.0571 47.5657 65.0309 47.5695C65.0047 47.5733 64.9803 47.5714 64.9592 47.5639C64.9444 47.5507 64.933 47.5336 64.929 47.5129C64.9256 47.4921 64.9233 47.4676 64.9233 47.4373C64.9233 47.4317 64.9233 47.426 64.9273 47.4204C64.9313 47.3939 64.937 47.3675 64.9461 47.3411C64.9746 47.2712 65.0344 47.2391 65.1266 47.2448C65.1591 47.2485 65.183 47.2617 65.2024 47.2844C65.2212 47.3071 65.2246 47.3316 65.2132 47.3599C65.191 47.4317 65.1534 47.4902 65.0987 47.5393Z" fill="black"/>
<path d="M67.3707 48.6117C67.3952 48.5513 67.4214 48.523 67.4516 48.523C67.4818 48.523 67.4892 48.5532 67.4801 48.6117C67.4328 48.7591 67.3747 48.9025 67.3086 49.0366C67.2426 49.1725 67.1526 49.2934 67.0375 49.4011C66.9509 49.4879 66.8478 49.5445 66.7271 49.5691C66.5636 49.5917 66.428 49.5729 66.3227 49.5105C66.2173 49.4483 66.1324 49.3576 66.0703 49.2424C66.0082 49.1253 65.961 48.9988 65.9308 48.8591C65.9006 48.7213 65.8801 48.5853 65.8727 48.4551C65.8499 48.2077 65.8328 47.8848 65.822 47.4807C65.8106 47.0785 65.814 46.6537 65.8328 46.2043C65.8516 45.7549 65.8949 45.3395 65.9649 44.9561C66.0327 44.5728 66.1341 44.2764 66.268 44.0649C66.3449 43.9611 66.4337 43.9101 66.5351 43.9082C66.6365 43.9082 66.7271 43.9535 66.808 44.0498C66.8609 44.1235 66.9019 44.2027 66.9304 44.2858C66.9583 44.3689 66.9754 44.452 66.9851 44.5388C67.013 44.8334 67.0096 45.1449 66.9737 45.4716C66.9378 45.7983 66.8797 46.1495 66.8023 46.5196C66.7231 46.8916 66.6314 47.2183 66.522 47.5015C66.4126 47.7847 66.3227 48.0094 66.2509 48.1737C66.2116 48.2398 66.1962 48.3417 66.2076 48.4758C66.2207 48.6231 66.2492 48.776 66.2902 48.9347C66.3318 49.0933 66.3921 49.2197 66.469 49.3142C66.5408 49.3916 66.6217 49.4162 66.7123 49.3859C66.8023 49.3576 66.8911 49.2953 66.9794 49.2028C67.0677 49.1103 67.1469 49.0083 67.2147 48.8988C67.2824 48.7892 67.3348 48.6929 67.3707 48.608V48.6117ZM66.2133 46.3836C66.2036 46.48 66.1962 46.6235 66.1888 46.8179C66.1814 47.0124 66.174 47.2088 66.166 47.4089C66.1603 47.6317 66.1529 47.8074 66.1472 47.932C66.219 47.7715 66.2999 47.5392 66.3939 47.2352C66.4878 46.9312 66.5744 46.5706 66.6519 46.1571C66.7288 45.7435 66.78 45.296 66.8023 44.8127C66.7892 44.5313 66.7556 44.3406 66.7009 44.2405C66.6462 44.1404 66.5875 44.131 66.5237 44.2141C66.4599 44.2972 66.4092 44.4709 66.3711 44.7371C66.313 45.1771 66.268 45.617 66.2378 46.0589C66.2281 46.1684 66.2207 46.276 66.2133 46.3836Z" fill="black"/>
<path d="M69.439 48.5736C69.4709 48.5547 69.5011 48.5396 69.533 48.5301C69.5632 48.5207 69.5837 48.5207 69.5934 48.532C69.6025 48.5434 69.5894 48.5698 69.5558 48.6095C69.4465 48.7341 69.3166 48.8493 69.1662 48.9531C69.0153 49.057 68.8592 49.1439 68.7008 49.2156C68.5767 49.2723 68.4451 49.3176 68.3078 49.3496C68.1705 49.3836 68.0327 49.3912 67.8971 49.3723C67.7616 49.3534 67.6397 49.293 67.5263 49.1911C67.3571 49.0343 67.2877 48.8417 67.3156 48.617C67.3401 48.4376 67.4101 48.2847 67.5246 48.1582C67.6397 48.0336 67.7843 47.9467 67.9592 47.9033C68.1062 47.8712 68.2514 47.8674 68.3978 47.8919C68.4639 47.9014 68.526 47.924 68.5807 47.9599C68.6313 47.9996 68.6598 48.0449 68.6632 48.0977C68.6689 48.1506 68.6484 48.1997 68.6034 48.2488C68.5112 48.3319 68.4035 48.381 68.281 48.3961C68.146 48.4188 68.0082 48.4339 67.8709 48.4395C67.8049 48.4395 67.7581 48.4528 67.7319 48.4811C67.7052 48.5094 67.6887 48.5566 67.6847 48.6226C67.6619 48.804 67.7205 48.9531 67.8578 49.0664C67.9427 49.1344 68.0458 49.1646 68.1683 49.1533C68.2907 49.1439 68.4206 49.1098 68.5579 49.0532C68.6951 48.9965 68.829 48.9324 68.9606 48.8568C69.0927 48.7813 69.2112 48.7115 69.3166 48.6453C69.3616 48.617 69.4015 48.5925 69.4351 48.5736H69.439ZM67.9296 48.1865C67.9296 48.1865 67.9273 48.1902 67.9239 48.1902C67.9182 48.1959 67.9108 48.2035 67.9011 48.211C67.8914 48.2186 67.8823 48.2261 67.8749 48.2356C67.8669 48.2432 67.8635 48.2488 67.8635 48.2526C67.8669 48.262 67.8914 48.2658 67.9427 48.2601C67.9917 48.2545 68.0458 48.2469 68.1045 48.2337C68.1626 48.2205 68.2138 48.2054 68.2531 48.1827C68.2924 48.162 68.3038 48.1374 68.289 48.1072C68.281 48.0977 68.2719 48.0902 68.2622 48.0845C68.2514 48.0789 68.24 48.0732 68.2269 48.0713C68.1683 48.0713 68.1159 48.0827 68.0686 48.1053C68.0213 48.128 67.9746 48.1544 67.9313 48.1865H67.9296Z" fill="black"/>
<path d="M73.5007 48.2753C73.5474 48.2508 73.5964 48.2319 73.6454 48.2206C73.6943 48.2092 73.7337 48.2055 73.7621 48.2111C73.7906 48.2168 73.7997 48.2281 73.7883 48.247C73.7769 48.2659 73.7359 48.2942 73.6624 48.3301C73.54 48.3848 73.4084 48.4623 73.2689 48.5642C73.1299 48.6662 73.0074 48.7814 72.898 48.9098C72.7892 49.0382 72.7215 49.1741 72.693 49.3176C72.5819 49.937 72.4184 50.545 72.2054 51.1379C72.1097 51.4173 71.989 51.6874 71.842 51.9479C71.7782 52.0631 71.703 52.167 71.6147 52.2595C71.5617 52.3161 71.498 52.3501 71.4228 52.3634C71.298 52.3784 71.204 52.369 71.1402 52.3294C71.0764 52.2897 71.0309 52.2066 71.0007 52.0763C70.9745 51.9196 70.9785 51.7629 71.0104 51.6062C71.0742 51.2587 71.1852 50.9283 71.3453 50.6111C71.4695 50.3562 71.6067 50.1088 71.7594 49.8728C71.9098 49.6367 72.0812 49.412 72.2732 49.2024C72.3205 49.1496 72.3541 49.0929 72.3751 49.0325C72.3956 48.972 72.407 48.9116 72.4127 48.8475C72.4184 48.7682 72.4258 48.687 72.4372 48.6076C72.4782 48.2753 72.5084 47.9392 72.5272 47.6012C72.5671 46.8894 72.554 46.1775 72.4839 45.4656C72.4463 45.088 72.3694 44.7179 72.2544 44.3554C72.2037 44.1854 72.1262 44.0287 72.0231 43.8852C71.9946 43.8474 71.9627 43.8134 71.9326 43.7813C71.85 43.6944 71.7708 43.6472 71.6956 43.6378C71.6204 43.6284 71.5355 43.6624 71.4433 43.7322C71.1328 43.9626 70.9426 44.2685 70.8765 44.6518C70.8543 44.7934 70.7785 44.8425 70.6509 44.7991C70.5906 44.7764 70.5587 44.7368 70.5547 44.6744C70.5513 44.6216 70.557 44.5668 70.5701 44.512C70.6584 44.1798 70.8275 43.8984 71.0799 43.6699C71.1909 43.5642 71.3151 43.4943 71.4507 43.4622C71.5862 43.4301 71.7292 43.4282 71.8802 43.4528C71.9645 43.4679 72.0419 43.5 72.1074 43.5472C72.1735 43.5944 72.2356 43.6491 72.2937 43.7134C72.435 43.8795 72.5386 44.0646 72.6047 44.2685C72.6782 44.4762 72.7346 44.6858 72.7756 44.8991C72.8154 45.1125 72.8456 45.3259 72.8644 45.5431C72.8866 45.8546 72.9037 46.1454 72.9168 46.4211C72.9208 46.5249 72.9242 46.625 72.9322 46.7213C72.9225 47.3218 72.8889 47.8731 72.8303 48.3735C72.8246 48.4377 72.8211 48.5019 72.8172 48.5642C72.8172 48.5774 72.8172 48.5907 72.8211 48.6039C72.8246 48.6171 72.8342 48.6246 72.8491 48.6284C72.8587 48.6322 72.8701 48.6322 72.8792 48.6284C72.8889 48.6246 72.8963 48.6227 72.902 48.619C73.0353 48.5264 73.1635 48.4509 73.2842 48.3924C73.352 48.3603 73.4249 48.3225 73.5064 48.2772L73.5007 48.2753ZM72.1997 49.9577C72.2071 49.9294 72.2128 49.8973 72.2151 49.8652C72.2151 49.852 72.2151 49.8369 72.2185 49.8218C72.034 50.0559 71.8722 50.2995 71.7349 50.5525C71.5976 50.8055 71.4883 51.0756 71.4057 51.3588C71.3772 51.4627 71.3527 51.5646 71.3362 51.6684C71.3191 51.7723 71.3151 51.8762 71.3248 51.98C71.3248 51.9951 71.3282 52.0102 71.3339 52.0235C71.3396 52.0367 71.351 52.0442 71.3658 52.048C71.3943 52.0536 71.4171 52.0442 71.4336 52.0197C71.539 51.8686 71.6278 51.7081 71.6973 51.5363C71.8084 51.2814 71.9041 51.0208 71.9833 50.7583C72.0624 50.4959 72.1342 50.2278 72.198 49.9558L72.1997 49.9577Z" fill="black"/>
<path d="M75.5991 48.7878C75.7102 48.6104 75.7763 48.4989 75.7985 48.4498C75.8195 48.4026 75.8361 48.4045 75.8475 48.4555C75.8588 48.5065 75.823 48.6254 75.7404 48.8086C75.6555 48.9918 75.5518 49.1334 75.4277 49.2334C75.3035 49.3336 75.1867 49.3694 75.0796 49.343C74.9725 49.3165 74.8951 49.241 74.8484 49.1183C74.8011 48.9937 74.788 48.8369 74.8068 48.6481C74.8068 48.6444 74.8068 48.6368 74.8102 48.6236C74.8142 48.5914 74.8182 48.5442 74.8273 48.482C74.8347 48.4196 74.8404 48.3554 74.8444 48.2874C74.8484 48.2195 74.8444 48.1647 74.8387 48.1213C74.8313 48.0778 74.8102 48.0628 74.7783 48.076C74.7014 48.1175 74.6262 48.2006 74.5544 48.3233C74.481 48.4461 74.4155 48.5745 74.3551 48.7085C74.2947 48.8426 74.2531 48.9521 74.2286 49.0333C74.2195 49.0597 74.2098 49.0862 74.2007 49.1164C74.1876 49.1541 74.1722 49.1919 74.1574 49.2297C74.1159 49.3392 74.0424 49.3808 73.937 49.3562C73.8789 49.343 73.8447 49.3071 73.8356 49.2486C73.8316 49.2033 73.8316 49.1617 73.8316 49.1202C73.8316 49.0937 73.8316 49.0692 73.8282 49.0484C73.8225 48.7255 73.8145 48.4008 73.8037 48.0741C73.8071 48.0363 73.8225 48.0099 73.8544 47.9966C73.8846 47.9816 73.9199 47.974 73.9632 47.974C73.9957 47.974 74.0259 47.9834 74.0538 48.0005C74.0822 48.0174 74.0988 48.0552 74.1067 48.11C74.1102 48.1289 74.1102 48.1477 74.1102 48.1666C74.1141 48.1761 74.1141 48.1855 74.1141 48.1949C74.1198 48.2402 74.1233 48.278 74.1233 48.3101C74.1233 48.3573 74.1272 48.3913 74.1329 48.4083C74.1386 48.4253 74.1534 48.4253 74.1745 48.4064C74.195 48.3876 74.2286 48.3422 74.2776 48.2724C74.3608 48.144 74.4622 48.0363 74.5846 47.9476C74.6957 47.8682 74.8182 47.8343 74.9515 47.8475C75.0665 47.8588 75.1434 47.9193 75.181 48.0288C75.1964 48.0835 75.2055 48.1402 75.2055 48.1949C75.2055 48.2497 75.2021 48.3064 75.1947 48.363C75.1907 48.4215 75.1867 48.4801 75.181 48.5424C75.1776 48.5613 75.1736 48.5801 75.1702 48.599C75.1514 48.8067 75.1565 48.9465 75.189 49.0163C75.2209 49.0862 75.2699 49.1107 75.3337 49.0862C75.3975 49.0616 75.4863 48.9616 75.5991 48.7841V48.7878Z" fill="black"/>
<path d="M77.0338 48.4357C77.0338 48.4697 76.9643 48.5283 76.8231 48.6133C76.6818 48.6982 76.5782 48.7624 76.5127 48.8058C76.4466 48.8493 76.413 48.8757 76.413 48.8851C76.4261 48.9135 76.4392 48.9626 76.454 49.0305C76.4694 49.0985 76.4751 49.1722 76.4711 49.2534C76.4671 49.3326 76.4409 49.4044 76.3936 49.4667C76.3469 49.529 76.266 49.5668 76.1549 49.58C76.0439 49.5894 75.9442 49.5725 75.8553 49.529C75.7687 49.4856 75.7124 49.4233 75.6901 49.3421C75.6674 49.2609 75.6958 49.1665 75.771 49.057C75.8217 48.9965 75.8821 48.9437 75.9533 48.8983C75.9778 48.8833 76.0023 48.8643 76.0285 48.8455C75.9442 48.753 75.8633 48.6567 75.7858 48.5603C75.7089 48.4641 75.6599 48.3753 75.6389 48.2998C75.6167 48.211 75.6315 48.1279 75.6844 48.0486C75.7368 47.9693 75.8291 47.924 75.959 47.9108C76.0234 47.9051 76.0832 47.9089 76.1378 47.9202C76.1925 47.9316 76.2449 47.9599 76.2922 48.0014C76.3019 48.0109 76.3093 48.0222 76.315 48.0354C76.3207 48.0486 76.3167 48.0638 76.3093 48.0826C76.2939 48.111 76.2694 48.1261 76.2375 48.1261C76.2153 48.1261 76.1925 48.1223 76.1697 48.1166C76.1475 48.1072 76.1265 48.0978 76.1077 48.0883C76.0946 48.0807 76.0832 48.0751 76.0701 48.0694C76.0285 48.0543 75.9966 48.0562 75.9744 48.0751C75.9516 48.0958 75.9402 48.1261 75.9402 48.1695C75.9442 48.2431 75.9744 48.3225 76.0308 48.4074C76.0872 48.4924 76.1453 48.5698 76.2016 48.6397C76.2244 48.6642 76.2449 48.6887 76.2603 48.7114C76.2751 48.7265 76.3184 48.7246 76.3862 48.7039C76.454 48.6831 76.5782 48.6246 76.761 48.5283C76.9433 48.4319 77.0338 48.4018 77.0338 48.4338V48.4357ZM76.0627 49.4157C76.1042 49.4119 76.1322 49.3893 76.1453 49.3459C76.1584 49.3025 76.1623 49.2552 76.1606 49.2023C76.1566 49.1495 76.1532 49.1117 76.1509 49.0853C76.1453 49.0702 76.1361 49.0589 76.1208 49.0551C76.106 49.0513 76.0928 49.0513 76.0797 49.057C76.0325 49.0947 75.9966 49.1419 75.9744 49.2005C75.9516 49.259 75.9533 49.31 75.9801 49.3534C75.9892 49.3685 76.0006 49.3837 76.0137 49.395C76.0268 49.4063 76.0456 49.4138 76.0644 49.4176L76.0627 49.4157Z" fill="black"/>
<path d="M78.4773 48.5777C78.5565 48.5002 78.5924 48.4814 78.581 48.5192C78.5696 48.5569 78.5263 48.6268 78.4494 48.7288C78.3719 48.8307 78.2762 48.9384 78.1634 49.0573C78.0501 49.1762 77.9282 49.2764 77.8 49.3632C77.6719 49.4501 77.5517 49.4973 77.4366 49.5029C77.2954 49.5029 77.1843 49.4614 77.1 49.3783C77.0151 49.2952 76.9547 49.1838 76.9189 49.0478C76.8835 48.91 76.8682 48.7628 76.8739 48.6022C76.8813 48.4229 76.887 48.2454 76.8927 48.066C76.8966 47.9753 76.8983 47.8885 76.9023 47.8016C76.9097 47.6581 76.9154 47.5146 76.9171 47.3711C76.9211 47.3258 76.9132 47.288 76.8944 47.2578C76.8778 47.2276 76.8459 47.2106 76.8004 47.2068C76.7497 47.203 76.6859 47.203 76.6084 47.203H76.437C76.3715 47.1955 76.3265 47.1785 76.3037 47.1502C76.2809 47.1218 76.298 47.0936 76.3561 47.0633C76.3977 47.0482 76.4449 47.0388 76.503 47.0369C76.5594 47.0369 76.6158 47.0369 76.6705 47.0388C76.7047 47.0425 76.7366 47.0425 76.7611 47.0425C76.8459 47.0425 76.8983 47.0293 76.9171 47.0029C76.9359 46.9765 76.9473 46.9236 76.9513 46.8424C76.9564 46.7574 76.9604 46.6725 76.9644 46.5875C76.9678 46.5422 76.9701 46.4969 76.9758 46.4534C76.9758 46.3873 76.9923 46.3269 77.0282 46.2722C77.0658 46.2212 77.1131 46.2023 77.1712 46.2136C77.2219 46.2268 77.2504 46.2589 77.2561 46.3099C77.2595 46.3949 77.2618 46.4798 77.2618 46.5648C77.2652 46.612 77.2652 46.6612 77.2618 46.7084C77.2618 46.7593 77.2618 46.8122 77.2652 46.8669C77.2618 46.9425 77.2709 46.9897 77.2919 47.0105C77.3125 47.0293 77.3614 47.0406 77.4423 47.0406H77.8279C77.8866 47.0406 78.0581 47.0369 78.344 47.0293C78.63 47.0218 78.7843 47.0444 78.8071 47.0992C78.8293 47.154 78.6487 47.1861 78.2631 47.1936C78.0296 47.2068 77.849 47.2125 77.7226 47.2125C77.6383 47.2087 77.5608 47.2087 77.493 47.2087C77.3785 47.2087 77.3085 47.2295 77.2823 47.2692C77.2561 47.3088 77.243 47.39 77.2464 47.5089C77.243 47.6128 77.239 47.7374 77.2316 47.8828C77.2128 48.183 77.2031 48.4889 77.2031 48.8024C77.2111 49.0177 77.2487 49.1574 77.3182 49.2197C77.3876 49.2839 77.4782 49.2952 77.5893 49.2556C77.7004 49.2159 77.8205 49.1441 77.9504 49.0422C78.0803 48.9402 78.2084 48.8307 78.3366 48.7117C78.3645 48.6759 78.3964 48.6419 78.4363 48.6098C78.4494 48.5985 78.4608 48.5871 78.4739 48.5777H78.4773Z" fill="black"/>
<path d="M80.9058 48.5052C80.8665 48.628 80.7873 48.7677 80.6688 48.9244C80.5503 49.0811 80.4034 49.1831 80.2262 49.2284C80.0497 49.2737 79.897 49.2681 79.7688 49.2095C79.6413 49.1529 79.5695 48.9981 79.5564 48.7488C79.4094 49.0339 79.2704 49.2152 79.1383 49.2945C79.0067 49.3738 78.8672 49.404 78.7242 49.3852C78.5624 49.3587 78.4531 49.2964 78.395 49.1963C78.3386 49.0963 78.3181 48.9811 78.3369 48.8489C78.3557 48.7167 78.395 48.5921 78.4553 48.4712C78.502 48.3806 78.5681 48.2975 78.653 48.2201C78.7373 48.1427 78.8262 48.0823 78.9184 48.0388C79.0329 47.9803 79.148 47.9539 79.2625 47.9557C79.3792 47.9595 79.5017 47.9973 79.6333 48.0709C79.6373 48.0747 79.6373 48.0709 79.6373 48.0615C79.6373 48.0483 79.6413 48.0313 79.6464 48.0124C79.6521 47.9935 79.6635 47.9765 79.6806 47.9652C79.7239 47.9331 79.7746 47.918 79.8349 47.918C79.8953 47.918 79.9403 47.9482 79.9722 48.0067C79.9779 48.0841 79.9705 48.1824 79.9477 48.3013C79.901 48.5619 79.901 48.7507 79.9477 48.8659C79.995 48.9811 80.0799 49.0339 80.2 49.0264C80.3202 49.0188 80.4769 48.898 80.6705 48.6676C80.8642 48.4372 80.94 48.3806 80.9001 48.5033L80.9058 48.5052ZM78.7698 49.1189C78.8353 49.1661 78.9127 49.1604 78.9993 49.1C79.0859 49.0396 79.1685 48.9527 79.2477 48.8413C79.3268 48.7299 79.3946 48.6185 79.4493 48.5052C79.5034 48.3938 79.5336 48.3108 79.5393 48.256C79.3775 48.1691 79.238 48.154 79.1235 48.2107C79.0067 48.2673 78.9144 48.3617 78.8467 48.492C78.7789 48.6223 78.7373 48.7488 78.7242 48.8716C78.7111 48.9943 78.7282 49.0773 78.7715 49.1189H78.7698Z" fill="black"/>
<path d="M83.693 48.6528C83.7494 48.4697 83.7909 48.3809 83.8171 48.3885C83.8416 48.396 83.8416 48.4507 83.8171 48.5509C83.7927 48.6509 83.7608 48.7547 83.7215 48.8624C83.6833 48.97 83.6081 49.0663 83.497 49.1513C83.407 49.2211 83.3034 49.2665 83.1826 49.2854C83.0077 49.3042 82.8648 49.2854 82.7554 49.2268C82.6466 49.1702 82.56 49.089 82.4997 48.9851C82.4393 48.8813 82.396 48.768 82.3715 48.6471C82.3208 48.7812 82.257 48.9134 82.1778 49.0455C82.0987 49.1777 82.0007 49.2816 81.8839 49.3627C81.7654 49.4421 81.6242 49.4723 81.4607 49.4534C81.2875 49.4251 81.1537 49.3552 81.0597 49.2438C80.964 49.1343 80.8939 49.0059 80.8489 48.8586C80.8039 48.7113 80.7755 48.5697 80.7624 48.4319C80.7379 48.2053 80.7191 47.907 80.706 47.5387C80.6929 47.1705 80.6963 46.7797 80.7174 46.3699C80.7379 45.9602 80.7869 45.5769 80.862 45.2238C80.9372 44.8707 81.0523 44.5969 81.2066 44.4024C81.2892 44.3099 81.3889 44.2627 81.5057 44.2607C81.6225 44.2607 81.7244 44.3023 81.8127 44.3911C81.9272 44.527 81.9933 44.6762 82.0104 44.8423C82.044 45.1086 82.0326 45.3956 81.9728 45.7053C81.9124 46.0149 81.8298 46.3209 81.7204 46.6211C81.6111 46.9232 81.4983 47.197 81.3815 47.4443C81.2647 47.6917 81.1651 47.8899 81.0825 48.0373C81.0859 48.1411 81.0973 48.2695 81.1201 48.4225C81.1423 48.5735 81.1782 48.7227 81.2272 48.8681C81.2761 49.0134 81.3439 49.1286 81.4288 49.2174C81.5285 49.3005 81.6356 49.3005 81.7506 49.2193C81.8651 49.1381 81.9745 49.0172 82.0781 48.8549C82.1818 48.6943 82.2644 48.5338 82.3248 48.3771C82.302 48.1789 82.2849 47.9183 82.2735 47.5954C82.2627 47.2725 82.2684 46.9345 82.2889 46.5777C82.3094 46.2207 82.355 45.8903 82.4222 45.5844C82.49 45.2785 82.5919 45.0406 82.7252 44.8707C82.801 44.7914 82.8893 44.7498 82.9907 44.7479C83.0926 44.7479 83.1826 44.7838 83.2641 44.8613C83.3672 44.9783 83.4258 45.1086 83.4423 45.254C83.4805 45.5712 83.448 45.9111 83.3484 46.2774C83.2487 46.6437 83.1245 46.9874 82.9815 47.3084C82.8363 47.6294 82.7161 47.8767 82.6164 48.0486C82.6198 48.1411 82.6312 48.2544 82.65 48.3903C82.6688 48.5263 82.7013 48.6547 82.7463 48.7793C82.7896 48.9039 82.85 49.0059 82.9269 49.0833C83.0869 49.189 83.2396 49.189 83.3882 49.0833C83.5369 48.9775 83.6383 48.8341 83.697 48.6509L83.693 48.6528ZM81.1406 46.4379C81.1315 46.5229 81.1235 46.6494 81.1161 46.8174C81.1087 46.9855 81.1013 47.1573 81.0939 47.3367C81.0842 47.5274 81.0768 47.6803 81.0694 47.7918C81.148 47.6502 81.2425 47.4481 81.3479 47.1819C81.4533 46.9156 81.549 46.6022 81.6378 46.2415C81.7244 45.8809 81.7808 45.49 81.8053 45.067C81.7899 44.8216 81.7506 44.6554 81.6902 44.5667C81.6299 44.4779 81.5644 44.4722 81.4926 44.544C81.4214 44.6177 81.3644 44.7687 81.3211 45.001C81.2556 45.3843 81.2049 45.7695 81.169 46.1547C81.1594 46.2472 81.148 46.3416 81.1389 46.4379H81.1406ZM82.6654 46.6531C82.6597 46.7268 82.6523 46.8363 82.6443 46.9836C82.6369 47.1309 82.6295 47.2801 82.6221 47.433C82.6164 47.6029 82.6107 47.737 82.605 47.8352C82.6745 47.7106 82.7554 47.5312 82.85 47.2989C82.9439 47.0667 83.0305 46.7929 83.1074 46.4775C83.1866 46.1641 83.2356 45.8223 83.2584 45.456C83.2447 45.2389 83.2111 45.0916 83.1564 45.0142C83.1017 44.9367 83.0436 44.9311 82.9798 44.9953C82.9155 45.0595 82.8648 45.1935 82.8272 45.3975C82.7668 45.7298 82.7218 46.0659 82.6933 46.4039C82.6842 46.487 82.6745 46.5701 82.6654 46.655V46.6531Z" fill="black"/>
<path d="M86.1837 48.5052C86.1438 48.628 86.0652 48.7677 85.9462 48.9244C85.8277 49.0811 85.6807 49.1831 85.5041 49.2284C85.327 49.2737 85.1749 49.2681 85.0468 49.2095C84.9186 49.1529 84.8474 48.9981 84.8337 48.7488C84.6873 49.0339 84.5478 49.2152 84.4162 49.2945C84.2846 49.3738 84.1451 49.404 84.0021 49.3852C83.8403 49.3587 83.731 49.2964 83.6729 49.1963C83.6159 49.0963 83.5954 48.9811 83.6142 48.8489C83.633 48.7167 83.6729 48.5921 83.7327 48.4712C83.78 48.3806 83.846 48.2975 83.9303 48.2201C84.0152 48.1427 84.1035 48.0823 84.1958 48.0388C84.3108 47.9803 84.4253 47.9539 84.5404 47.9557C84.6572 47.9595 84.7796 47.9973 84.9112 48.0709C84.9152 48.0747 84.9152 48.0709 84.9152 48.0615C84.9152 48.0483 84.9186 48.0313 84.9243 48.0124C84.93 47.9935 84.9414 47.9765 84.9585 47.9652C85.0018 47.9331 85.0525 47.918 85.1123 47.918C85.1726 47.918 85.2182 47.9482 85.2501 48.0067C85.2558 48.0841 85.2478 48.1824 85.2256 48.3013C85.1783 48.5619 85.1783 48.7507 85.2256 48.8659C85.2723 48.9811 85.3572 49.0339 85.478 49.0264C85.5981 49.0188 85.7542 48.898 85.9484 48.6676C86.1421 48.4372 86.2173 48.3806 86.178 48.5033L86.1837 48.5052ZM84.0454 49.1189C84.1115 49.1661 84.1884 49.1604 84.2749 49.1C84.3615 49.0396 84.4441 48.9527 84.5233 48.8413C84.6025 48.7299 84.6702 48.6185 84.7249 48.5052C84.7796 48.3938 84.8092 48.3108 84.8149 48.256C84.6532 48.1691 84.5142 48.154 84.3991 48.2107C84.2824 48.2673 84.1901 48.3617 84.1223 48.492C84.0545 48.6223 84.0135 48.7488 84.0004 48.8716C83.9867 48.9943 84.0038 49.0773 84.0471 49.1189H84.0454Z" fill="black"/>
<path d="M87.6209 48.5777C87.7 48.5002 87.7359 48.4814 87.7245 48.5192C87.7131 48.5569 87.6698 48.6268 87.5929 48.7288C87.5155 48.8307 87.4198 48.9384 87.3064 49.0573C87.1936 49.1762 87.0712 49.2764 86.9436 49.3632C86.8154 49.4501 86.6947 49.4973 86.5802 49.5029C86.4389 49.5029 86.3278 49.4614 86.243 49.3783C86.1587 49.2952 86.0983 49.1838 86.0624 49.0478C86.0265 48.91 86.0117 48.7628 86.0174 48.6022C86.0248 48.4229 86.0305 48.2454 86.0362 48.066C86.0402 47.9753 86.0419 47.8885 86.0453 47.8016C86.0533 47.6581 86.059 47.5146 86.0607 47.3711C86.0647 47.3258 86.0567 47.288 86.0379 47.2578C86.0208 47.2276 85.9889 47.2106 85.9439 47.2068C85.8932 47.203 85.8289 47.203 85.752 47.203H85.5805C85.515 47.1955 85.4695 47.1785 85.4472 47.1502C85.4245 47.1218 85.4415 47.0936 85.4996 47.0633C85.5412 47.0482 85.5879 47.0388 85.6466 47.0369C85.703 47.0369 85.7594 47.0369 85.8141 47.0388C85.8477 47.0425 85.8801 47.0425 85.9046 47.0425C85.9889 47.0425 86.0419 47.0293 86.0607 47.0029C86.0795 46.9765 86.0909 46.9236 86.0943 46.8424C86.1 46.7574 86.104 46.6725 86.108 46.5875C86.1114 46.5422 86.1131 46.4969 86.1188 46.4534C86.1188 46.3873 86.1359 46.3269 86.1718 46.2722C86.2094 46.2212 86.2567 46.2023 86.3148 46.2136C86.3654 46.2268 86.3939 46.2589 86.3996 46.3099C86.403 46.3949 86.4053 46.4798 86.4053 46.5648C86.4087 46.612 86.4087 46.6612 86.4053 46.7084C86.4053 46.7593 86.4053 46.8122 86.4087 46.8669C86.4053 46.9425 86.4144 46.9897 86.4349 47.0105C86.456 47.0293 86.505 47.0406 86.5859 47.0406H86.9715C87.0302 47.0406 87.2011 47.0369 87.4876 47.0293C87.7735 47.0218 87.9279 47.0444 87.9507 47.0992C87.9729 47.154 87.7923 47.1861 87.4067 47.1936C87.1731 47.2068 86.9926 47.2125 86.8661 47.2125C86.7813 47.2087 86.7044 47.2087 86.6366 47.2087C86.5215 47.2087 86.452 47.2295 86.4258 47.2692C86.3996 47.3088 86.3865 47.39 86.3899 47.5089C86.3865 47.6128 86.3825 47.7374 86.3751 47.8828C86.3563 48.183 86.3466 48.4889 86.3466 48.8024C86.3541 49.0177 86.3916 49.1574 86.4617 49.2197C86.5312 49.2839 86.6218 49.2952 86.7328 49.2556C86.8439 49.2159 86.9641 49.1441 87.094 49.0422C87.2238 48.9402 87.352 48.8307 87.4796 48.7117C87.5081 48.6759 87.54 48.6419 87.5798 48.6098C87.5929 48.5985 87.6043 48.5871 87.6174 48.5777H87.6209Z" fill="black"/>
<path d="M88.7186 48.7421C88.673 48.8347 88.5979 48.9385 88.4891 49.0518C88.3797 49.1651 88.2589 49.2368 88.1217 49.2671C87.9844 49.2973 87.8545 49.25 87.7303 49.1254C87.6831 49.0707 87.6477 49.0065 87.625 48.9347C87.6022 48.8629 87.5948 48.7912 87.6005 48.7213V48.6496C87.6005 48.576 87.6045 48.4891 87.6096 48.3928C87.6153 48.2946 87.6307 48.2077 87.6529 48.1284C87.6757 48.0491 87.7115 48.0038 87.7583 47.9868C87.8961 47.9528 87.9713 48 87.9827 48.1303C87.9827 48.1719 87.9827 48.2153 87.9787 48.2568C87.9747 48.2795 87.9747 48.2984 87.9747 48.3173C87.9713 48.3777 87.9696 48.44 87.9656 48.5004C87.9656 48.5476 87.9639 48.5967 87.9599 48.6439C87.9559 48.8535 88.0032 48.98 88.1012 49.0197C88.1969 49.0593 88.3079 49.0178 88.4321 48.8932C88.5568 48.7685 88.6377 48.6647 88.677 48.5816C88.7146 48.4985 88.7431 48.4816 88.7596 48.5288C88.7767 48.576 88.7636 48.6477 88.7186 48.7403V48.7421ZM87.9542 47.5393C87.9354 47.5544 87.9126 47.5657 87.8864 47.5695C87.8602 47.5733 87.8357 47.5714 87.8152 47.5639C87.7998 47.5507 87.7884 47.5336 87.785 47.5129C87.781 47.4921 87.7793 47.4676 87.7793 47.4373C87.7793 47.4317 87.7793 47.426 87.7827 47.4204C87.7867 47.3939 87.7924 47.3675 87.8015 47.3411C87.83 47.2712 87.8904 47.2391 87.9827 47.2448C88.0146 47.2485 88.0391 47.2617 88.0579 47.2844C88.0767 47.3071 88.0807 47.3316 88.0693 47.3599C88.0465 47.4317 88.0089 47.4902 87.9542 47.5393Z" fill="black"/>
<path d="M90.5087 48.0323C90.552 47.9983 90.601 47.9794 90.6597 47.9794C90.6916 47.9794 90.7218 47.9888 90.7497 48.0058C90.7782 48.0228 90.7947 48.0605 90.8026 48.1153C90.8061 48.1342 90.8061 48.1531 90.8061 48.172C90.8101 48.1814 90.8101 48.1909 90.8101 48.2003C90.8158 48.2456 90.8192 48.2834 90.8192 48.3155C90.8192 48.3627 90.8232 48.3967 90.8289 48.4137C90.8346 48.4307 90.8494 48.4307 90.8704 48.4118C90.8909 48.3929 90.9245 48.3476 90.9735 48.2777C91.0567 48.1493 91.1581 48.0417 91.2806 47.9529C91.3916 47.8736 91.5141 47.8396 91.6474 47.8529C91.7624 47.8642 91.8376 47.9246 91.8775 48.0341C91.8923 48.0889 91.9014 48.1455 91.9014 48.2003C91.9014 48.2551 91.898 48.3117 91.8906 48.3684C91.8866 48.4269 91.8826 48.4854 91.8775 48.5477L91.8661 48.6044C91.8473 48.8121 91.853 48.9518 91.8849 49.0217C91.9168 49.0916 91.9658 49.1161 92.0296 49.0916C92.0939 49.067 92.1822 48.9669 92.295 48.7894C92.4061 48.6119 92.4722 48.5005 92.4944 48.4515C92.5172 48.4023 92.532 48.4061 92.5456 48.4571C92.5587 48.5081 92.5211 48.6271 92.438 48.8102C92.3554 48.9933 92.25 49.135 92.1258 49.2351C92.0017 49.3351 91.8849 49.371 91.7772 49.3445C91.6702 49.3181 91.5933 49.2426 91.546 49.1199C91.4987 48.9952 91.4856 48.8385 91.5044 48.6497C91.5044 48.6459 91.5044 48.6384 91.5084 48.6252C91.5118 48.5931 91.5158 48.5459 91.5255 48.4835C91.5329 48.4212 91.5386 48.357 91.542 48.2891C91.546 48.2229 91.542 48.1663 91.5363 48.1229C91.5306 48.0795 91.5084 48.0644 91.4765 48.0776C91.399 48.1191 91.3238 48.2022 91.2521 48.3249C91.1792 48.4477 91.1131 48.5761 91.0544 48.7101C90.9946 48.8442 90.953 48.9537 90.9285 49.0349C90.9194 49.0613 90.9097 49.0877 90.9006 49.118C90.8869 49.1557 90.8721 49.1935 90.8573 49.2313C90.8158 49.3408 90.7423 49.3823 90.6386 49.3578C90.5805 49.3445 90.5463 49.3087 90.5372 49.2501C90.5332 49.2048 90.5332 49.1633 90.5332 49.1217C90.5332 49.0953 90.5332 49.0708 90.5298 49.05C90.5241 48.797 90.5161 48.5421 90.511 48.2834C90.4825 48.3476 90.4432 48.4175 90.392 48.4949C90.1983 48.7365 90.0479 48.882 89.9425 48.9273C89.8349 48.9745 89.7557 49.0028 89.7033 49.016C89.6503 49.0292 89.6167 49.05 89.5996 49.0783C89.5848 49.1048 89.566 49.1274 89.5433 49.1501L89.5376 49.1539C89.4493 49.2501 89.3456 49.3125 89.2231 49.3427C89.1012 49.3729 88.9879 49.3635 88.8791 49.3144C88.7697 49.2653 88.6923 49.1708 88.6439 49.033C88.6097 48.9084 88.6057 48.7837 88.6342 48.661C88.6587 48.5515 88.698 48.4496 88.7526 48.3532C88.8187 48.2248 88.9053 48.1361 89.0124 48.0813C89.12 48.0285 89.2402 47.9983 89.3741 47.9926C89.5734 47.9832 89.6993 48.0776 89.7506 48.2759C89.7825 48.391 89.7899 48.5062 89.7745 48.6252C89.7711 48.6516 89.7671 48.6799 89.7614 48.7083C89.754 48.7271 89.7483 48.746 89.7466 48.7649C89.8201 48.7687 89.9141 48.7271 90.0291 48.6459C90.1436 48.5628 90.2507 48.4325 90.3544 48.2532C90.4187 48.138 90.4711 48.0625 90.5144 48.0266L90.5087 48.0323ZM89.1445 49.1765C89.2476 49.1293 89.3194 49.0481 89.3587 48.9329C89.1855 48.8234 89.0728 48.6667 89.0164 48.4628C88.9617 48.5591 88.9281 48.6705 88.9184 48.7989C88.907 48.9273 88.9201 49.033 88.9577 49.1161C88.9953 49.1992 89.058 49.2199 89.1462 49.1784L89.1445 49.1765ZM89.4362 48.7064C89.4641 48.6648 89.4829 48.6157 89.4886 48.5553C89.4943 48.4968 89.4926 48.4363 89.4829 48.3778C89.4715 48.3193 89.4567 48.272 89.4362 48.24C89.4151 48.206 89.3946 48.1965 89.3758 48.2097C89.3342 48.2437 89.3097 48.2947 89.3063 48.3608C89.3023 48.4269 89.312 48.4911 89.3382 48.5572C89.3627 48.6233 89.3963 48.6724 89.4362 48.7083V48.7064Z" fill="black"/>
</g>
</g>
<defs>
<clipPath id="clip0_87690_1288">
<rect width="106.516" height="52" fill="white" transform="translate(0.5 0.369141)"/>
</clipPath>
</defs>
</svg>
